<?xml version="1.0" encoding="utf-8"?>
<!-- Generator: Adobe Illustrator 21.0.0, SVG Export Plug-In . SVG Version: 6.00 Build 0)  -->
<svg version="1.1" id="Layer_1" xmlns="http://www.w3.org/2000/svg" xmlns:xlink="http://www.w3.org/1999/xlink" x="0px" y="0px"
	 viewBox="0 0 200 200" style="enable-background:new 0 0 200 200;" xml:space="preserve">
<style type="text/css">
	.st0{fill:#FFFFFF;stroke:#FFFFFF;stroke-width:3;stroke-miterlimit:10;}
</style>
<g id="XMLID_107_">
	<g id="XMLID_108_">
		<path id="XMLID_109_" class="st0" d="M112.7,24.6c1.2-2.3,3.9-3.8,6.5-3.5c1,0.1,1.9,0.4,2.7,0.8c23.8,11.7,47.5,23.5,71.3,35.2
			c0.8,0.4,1.7,0.8,2.4,1.4c1.7,1.4,2.6,3.7,2.3,5.8c-0.2,1.9-1.4,3.4-2.1,5.1c-16.8,34-33.5,68-50.3,102c-1.1,2.4-3.7,4-6.3,3.8
			c-1.8,0-3.4-1-4.9-1.8c-4.5-2.2-9.1-4.5-13.6-6.7c-3-0.8-6-1.5-9-2.3c-0.6,0.1-1.2,0.5-1.8,0.6c-26.7,4.7-53.4,9.3-80.1,14
			c-1.6,0.2-3.2-0.1-4.6-0.9c-1.6-1-2.7-2.6-3.1-4.4C15.6,135.6,8.9,97.5,2.3,59.4c-0.2-1-0.4-2-0.3-3c0.2-3.2,3.1-5.9,6.3-6.1
			c9.6-1.7,19.2-3.3,28.8-5c0.4,0,0.3-0.5,0.4-0.7c0.2-3.4,0.5-6.7,0.7-10.1c0.2-2.8,2.3-5.3,5-6c0.9-0.2,1.8-0.2,2.8-0.2
			c8.1,0.6,16.3,1.2,24.4,1.7c0.6,0,1.2,0.1,1.7,0.1c0.6-2,0.7-4.2,2.1-5.8c1.6-2,4.4-2.9,6.9-2.2c9.1,2.3,18.2,4.6,27.4,6.9
			c0.6,0.1,1.3,0.4,1.9,0.4C111.1,27.8,111.9,26.2,112.7,24.6z M117.5,24.7c-0.7,0.3-1.3,0.8-1.7,1.5c-0.9,1.7-1.7,3.5-2.6,5.3
			c-16.4,33.3-32.9,66.7-49.3,100c-0.7,1.6,0.1,3.6,1.7,4.2c23.9,11.8,47.7,23.5,71.6,35.3c0.7,0.3,1.4,0.8,2.3,0.8
			c1.3,0,2.5-0.8,3-2c17.1-34.6,34.1-69.2,51.2-103.8c0.4-0.7,0.8-1.5,0.8-2.3c0-1.3-0.8-2.5-1.9-3c-24.1-11.9-48.2-23.8-72.3-35.7
			C119.4,24.4,118.4,24.3,117.5,24.7z M77.2,26.3c-1,0.8-1.1,2.2-1.4,3.3C66.5,66.4,57.2,103.2,47.9,140c-0.3,1-0.7,2.2-0.2,3.2
			c0.4,1.1,1.5,1.9,2.6,2.1c18.5,4.7,37.1,9.3,55.6,14c-14.1-7-28.2-13.9-42.2-20.9c-2.3-1.2-3.7-3.8-3.4-6.4c0.1-1.6,0.9-3,1.6-4.4
			C77.3,96.4,92.6,65.3,108,34.1c0.2-0.5,0.6-1,0.7-1.6c-9.4-2.4-18.9-4.8-28.3-7.1C79.2,25.3,78,25.4,77.2,26.3z M41.6,34.7
			c-0.3,3.4-0.5,6.7-0.7,10.1c-2.5,35.4-5,70.8-7.6,106.3c-0.2,1.2,0.2,2.5,1.3,3.2c1,0.8,2.3,0.7,3.4,0.8c14.6,1,29.2,2.1,43.8,3.1
			c2.5,0.1,4.9,0.4,7.4,0.5c-13.4-3.3-26.7-6.7-40.1-10.1c-2.8-0.7-5-3.4-5-6.3c-0.1-1.3,0.4-2.5,0.7-3.8
			c8.8-34.9,17.7-69.9,26.4-104.8c-8.6-0.6-17.3-1.2-25.9-1.8C43.5,31.6,41.8,33,41.6,34.7z M8.3,53.8C7,54,5.9,54.9,5.6,56.2
			c-0.2,0.8-0.1,1.6,0.1,2.3C12.3,96.7,19,134.8,25.6,173c0.3,1.7,2.1,2.9,3.8,2.5c19.6-3.4,39.1-6.8,58.7-10.2
			c4.1-0.7,8.2-1.5,12.4-2.1c-0.5-0.3-1-0.2-1.6-0.3c-20.2-1.4-40.5-2.9-60.7-4.3c-1.4-0.2-3-0.1-4.3-0.7c-2.5-1-4.2-3.7-4.1-6.4
			c2.4-34.2,4.9-68.5,7.3-102.7C27.5,50.4,17.9,52.2,8.3,53.8z"/>
	</g>
</g>
</svg>
