<?xml version="1.0" encoding="utf-8"?>
<!-- Generator: Adobe Illustrator 21.0.0, SVG Export Plug-In . SVG Version: 6.00 Build 0)  -->
<svg version="1.1" id="Layer_1" xmlns="http://www.w3.org/2000/svg" xmlns:xlink="http://www.w3.org/1999/xlink" x="0px" y="0px"
	 viewBox="0 0 200 200" style="enable-background:new 0 0 200 200;" xml:space="preserve">
<style type="text/css">
	.st0{fill:none;stroke:#FFFFFF;stroke-width:6;stroke-miterlimit:10;}
</style>
<path id="XMLID_122_" class="st0" d="M137.7,131.7c-4.4-6.7-9.6-11.1-17.2-13.6c0,0-5.7-2.9-20.6-2.9s-20.6,2.9-20.6,2.9
	c-7.5,2.5-12.8,6.9-17.2,13.6c-1.7,2.7-2.7,8-2.7,10.9c0,0.7,0,1.6,0,2.5v4.9v-3.4c0,5.4,3.7,9.8,8.3,9.8H132c4.6,0,8.3-4.4,8.3-9.8
	v3.4v-5c0-0.9,0-1.7,0-2.5C140.4,139.7,139.4,134.4,137.7,131.7 M77.3,77.8c0,12.6,7.9,31.1,22.7,31.1c14.5,0,22.7-18.5,22.7-31.1
	S112.6,54.9,100,54.9C87.4,55,77.3,65.2,77.3,77.8"/>
<g id="XMLID_119_">
	<path id="XMLID_121_" class="st0" d="M73.9,109.3c-3.6-4.6-8-7.8-13.9-9.8c0,0-5.3-2.7-19.2-2.7s-19.2,2.7-19.2,2.7
		c-7,2.3-12,6.4-16,12.7c-1.6,2.5-2.5,7.5-2.6,10.2c0,0.7,0,1.5,0,2.3v1.4c0,5.1,3.5,9.2,7.7,9.2h38.8c0.6-3.2,1.6-6.8,2.9-8.9
		C58,118,64.6,112.5,73.9,109.3z"/>
	<path id="XMLID_120_" class="st0" d="M40.8,91.1C54.4,91.1,62,73.7,62,62c0-11.8-9.5-21.4-21.2-21.4S19.6,50.2,19.6,62
		C19.6,73.7,27,91.1,40.8,91.1z"/>
</g>
<g id="XMLID_116_">
	<path id="XMLID_118_" class="st0" d="M125.1,109.3c3.6-4.6,8-7.8,13.9-9.8c0,0,5.3-2.7,19.2-2.7s19.2,2.7,19.2,2.7
		c7,2.3,12,6.4,16,12.7c1.6,2.5,2.5,7.5,2.6,10.2c0,0.7,0,1.5,0,2.3v1.4c0,5.1-3.5,9.2-7.7,9.2h-38.8c-0.6-3.2-1.6-6.8-2.9-8.9
		C141,118,134.4,112.5,125.1,109.3z"/>
	<path id="XMLID_117_" class="st0" d="M158.2,91.1C144.6,91.1,137,73.7,137,62c0-11.8,9.5-21.4,21.2-21.4s21.2,9.6,21.2,21.4
		C179.4,73.7,172,91.1,158.2,91.1z"/>
</g>
</svg>
