<?xml version="1.0" encoding="utf-8"?>
<!-- Generator: Adobe Illustrator 21.0.0, SVG Export Plug-In . SVG Version: 6.00 Build 0)  -->
<svg version="1.1" id="Layer_1" xmlns="http://www.w3.org/2000/svg" xmlns:xlink="http://www.w3.org/1999/xlink" x="0px" y="0px"
	 viewBox="0 0 200 200" style="enable-background:new 0 0 200 200;" xml:space="preserve">
<style type="text/css">
	.st0{fill:none;stroke:#FFFFFF;stroke-width:8;stroke-miterlimit:10;}
</style>
<path id="XMLID_125_" class="st0" d="M171.3,109.4c0.4-3.1,0.7-6.1,0.7-9.4s-0.3-6.3-0.7-9.4l20.3-15.8c1.8-1.4,2.3-4,1.2-6.1
	l-19.2-33.2c-1.1-2.1-3.7-2.9-5.9-2.1L143.8,43c-5-3.8-10.4-7-16.2-9.4L123.9,8c-0.3-2.3-2.3-4-4.7-4H80.8c-2.4,0-4.4,1.7-4.7,4
	l-3.7,25.4c-5.8,2.4-11.2,5.7-16.2,9.4l-23.9-9.6c-2.2-0.9-4.7,0-5.9,2.1L7.3,68.6c-1.3,2.1-0.7,4.7,1.1,6.1l20.3,15.8
	c-0.4,3.1-0.7,6.2-0.7,9.4c0,3.2,0.3,6.3,0.7,9.4l-20.3,16c-1.8,1.4-2.3,4-1.1,6.1l19.2,33.2c1.1,2.1,3.7,2.9,5.9,2.1l23.9-9.6
	c5,3.8,10.4,7,16.2,9.4l3.7,25.4c0.3,2.3,2.3,4,4.7,4h38.4c2.4,0,4.4-1.7,4.7-4l3.6-25.4c5.9-2.4,11.2-5.7,16.2-9.4l23.9,9.6
	c2.2,0.9,4.7,0,5.9-2.1l19.2-33.2c1.1-2.1,0.7-4.7-1.2-6.1L171.3,109.4z M100,149.4c-27.2,0-49.4-22.1-49.4-49.4
	c0-27.2,22.2-49.4,49.4-49.4s49.4,22.1,49.4,49.4C149.4,127.2,127.2,149.4,100,149.4z"/>
</svg>
