<?xml version="1.0" encoding="utf-8"?>
<!-- Generator: Adobe Illustrator 19.0.0, SVG Export Plug-In . SVG Version: 6.00 Build 0)  -->
<svg version="1.1" id="Layer_1" xmlns="http://www.w3.org/2000/svg" xmlns:xlink="http://www.w3.org/1999/xlink" x="0px" y="0px"
	 viewBox="70 -10 200 200" style="enable-background:new 70 -10 200 200;" xml:space="preserve">
<style type="text/css">
	.st0{fill:none;stroke:#444444;stroke-width:4;stroke-miterlimit:10;}
</style>
<path id="XMLID_10_" class="st0" d="M168.5,73.8l-93,93.1c-1.9,1.9-1.9,5.1,0,7l10.7,10.7c1.9,1.9,5.1,1.9,7,0l93.1-93.1 M237.6,40
	l7.1-7.1c1.9-1.9,1.9-5.1,0-7L234,15.2c-1.9-1.9-5.1-1.9-7,0l-7.2,7.2 M219.9,22.4c-0.3-0.3-0.6-0.6-0.9-0.8L188.1-4.9
	c-2-1.6-4.9-1.5-6.7,0.3l-40,40c-1.8,1.8-1.9,4.7-0.3,6.7l26.4,30.8c0.3,0.3,0.6,0.7,0.9,1l17.7,17.7c0.3,0.3,0.6,0.6,1,0.9
	l30.8,26.4c2,1.6,4.9,1.5,6.7-0.3l40-40c1.8-1.8,1.9-4.7,0.3-6.7L238.4,41c-0.3-0.3-0.6-0.6-0.8-0.9L219.9,22.4z"/>
</svg>
