<?xml version="1.0" encoding="utf-8"?>
<!-- Generator: Adobe Illustrator 21.0.0, SVG Export Plug-In . SVG Version: 6.00 Build 0)  -->
<svg version="1.1" id="Layer_1" xmlns="http://www.w3.org/2000/svg" xmlns:xlink="http://www.w3.org/1999/xlink" x="0px" y="0px"
	 viewBox="0 0 200 200" style="enable-background:new 0 0 200 200;" xml:space="preserve">
<style type="text/css">
	.st0{fill:#FFFFFF;stroke:#FFFFFF;stroke-width:3;stroke-miterlimit:10;}
	.st1{fill:#FFFFFF;stroke:#FFFFFF;stroke-width:4;stroke-miterlimit:10;}
</style>
<g id="XMLID_98_">
	<path id="XMLID_355_" class="st0" d="M100,7c24.4,0,43.4,10.9,51.9,29.9c9.6,21.4,4.5,48.8-12.6,68.1
		C121,125.5,121,128.5,121,130.2c0,0.8-0.6,1.6-1.4,1.8c-25.1,6.8-37.4,10-38.7,10.1h-0.1l0,0c-2-0.1-2.8-1.8-4.2-6.8v-0.1
		c-1.9-6.8-5-18.1-15.8-30.2C43.6,85.7,38.5,58.3,48.1,36.9C56.6,17.9,75.5,7,100,7 M100,4C74.3,4,54.4,15.5,45.4,35.6
		C35.3,58.1,40.6,86.8,58.5,107c10.4,11.7,13.4,22.6,15.1,29.1c1.2,4.5,2.4,8.8,7,9c0.1,0,0.2,0,0.2,0c0.8,0,2.1-0.1,39.5-10.2
		c2.1-0.6,3.6-2.5,3.6-4.7c0-2.3,5.9-10.2,17.5-23.2c17.9-20.2,23.2-48.9,13.1-71.3C145.6,15.5,125.7,4,100,4L100,4z"/>
</g>
<g id="XMLID_95_">
	<path id="XMLID_351_" class="st1" d="M122.8,183.2c0.9,0,1.6,0.6,1.8,1.4c0.3,1-0.3,2-1.3,2.3l-24,6.1c-0.2,0.1-0.4,0.1-0.5,0.1
		c-0.8,0-1.6-0.6-1.8-1.4c-0.1-0.5-0.1-1,0.2-1.4s0.7-0.7,1.1-0.9l24.1-6.1C122.5,183.2,122.7,183.2,122.8,183.2"/>
</g>
<g id="XMLID_92_">
	<path id="XMLID_344_" class="st1" d="M122.9,155.8c0.8,0,1.6,0.6,1.8,1.4c0.3,1-0.3,2-1.3,2.3l-42.9,11.1c-0.2,0-0.3,0.1-0.5,0.1
		c-0.8,0-1.6-0.6-1.8-1.4c-0.1-0.5-0.1-1,0.2-1.4s0.7-0.7,1.1-0.9l42.9-11.1C122.6,155.8,122.7,155.8,122.9,155.8"/>
</g>
<g id="XMLID_89_">
	<path id="XMLID_302_" class="st1" d="M122.9,169.6c0.8,0,1.6,0.6,1.8,1.4c0.3,1-0.3,2-1.3,2.3l-42.9,11.1c-0.2,0.1-0.4,0.1-0.5,0.1
		c-0.8,0-1.6-0.6-1.8-1.4c-0.1-0.5-0.1-1,0.2-1.4s0.7-0.7,1.1-0.9l42.9-11.1C122.6,169.7,122.7,169.6,122.9,169.6"/>
</g>
<g id="XMLID_86_">
	<path id="XMLID_298_" class="st1" d="M122.9,141.9c0.8,0,1.6,0.6,1.8,1.4c0.3,1-0.3,2-1.3,2.3l-42.9,11.1c-0.1,0-0.3,0.1-0.5,0.1
		c-0.8,0-1.6-0.6-1.8-1.4c-0.1-0.5-0.1-1,0.2-1.4s0.7-0.7,1.1-0.9l42.9-11.1C122.6,141.9,122.7,141.9,122.9,141.9"/>
</g>
</svg>
