<?xml version="1.0" encoding="utf-8"?>
<!-- Generator: Adobe Illustrator 19.0.0, SVG Export Plug-In . SVG Version: 6.00 Build 0)  -->
<svg version="1.1" id="Layer_1" xmlns="http://www.w3.org/2000/svg" xmlns:xlink="http://www.w3.org/1999/xlink" x="0px" y="0px"
	 viewBox="70 -10 200 200" style="enable-background:new 70 -10 200 200;" xml:space="preserve">
<style type="text/css">
	.st0{fill:#0277BD;stroke:#444444;stroke-width:2;stroke-miterlimit:10;}
	.st1{fill:none;stroke:#444444;stroke-width:2;stroke-miterlimit:10;}
</style>
<g id="XMLID_4_">
	<g id="XMLID_21_">
		<path id="XMLID_22_" class="st0" d="M76.4-3.4c14.3,11.6,82.8,79,91.7,89.1c9.5,10.8,26.9,34.4,27.1,34.6l0.7,1l0.7-0.8l11.7,13.3
			l-0.1,0.1l-0.6,0.7l0.6,0.6c0.6,0.7,1.5,0.7,2.9,0.7c5.1,0.1,17.2,0.4,27.4,27.4c5.6,14.8,15,18.7,21.4,19.4
			c-3.5,1.1-8.3,2.2-13.5,2.2c-7.9,0-14.5-2.5-19.6-7.4c-12-11.7-19.3-24.9-22.9-31.3c-1.2-2.1-1.7-3-2.1-3.5l-0.7-0.8l-0.7,0.7
			l-11.7-13.3l0.1-0.1l0.6-0.7l-0.7-0.7c-0.2-0.2-21.5-19.7-31-30.5C147.9,85.9,86.3,11.9,76.4-3.4 M74.3-6C74.2-6,74.2-6,74.3-6
			l-0.1,0.1c-2.1,2.4,73.4,93,83.1,104c9.6,11,31,30.6,31,30.6l-0.7,0.7l13,14.8l0.7-0.7c1.5,1.7,9.4,19.7,25,34.8
			c6.1,5.9,13.5,7.7,20.3,7.7c10.5,0,19.4-4.3,19.4-4.3s-1.2,0.3-3.2,0.3c-5.5,0-16.7-2.2-23.1-18.9c-12.9-33.9-29-26.7-30.5-28.5
			l0.6-0.8l-13-14.8l-0.7,0.8c0,0-17.5-23.7-27.1-34.7C159.4,74.3,77.6-6,74.3-6L74.3-6z"/>
	</g>
</g>
<line id="XMLID_3_" class="st1" x1="209.7" y1="133.8" x2="200.6" y2="144.2"/>
<line id="XMLID_2_" class="st1" x1="196.7" y1="119.1" x2="187.6" y2="129.4"/>
</svg>
