<?xml version="1.0" encoding="utf-8"?>
<!-- Generator: Adobe Illustrator 21.0.0, SVG Export Plug-In . SVG Version: 6.00 Build 0)  -->
<svg version="1.1" id="Layer_1" xmlns="http://www.w3.org/2000/svg" xmlns:xlink="http://www.w3.org/1999/xlink" x="0px" y="0px"
	 viewBox="0 0 200 200" style="enable-background:new 0 0 200 200;" xml:space="preserve">
<style type="text/css">
	.st0{fill:none;stroke:#FFFFFF;stroke-width:8;stroke-miterlimit:10;}
</style>
<path id="XMLID_105_" class="st0" d="M100,120.1c-19.6,0-35.6-16-35.6-35.6s16-35.6,35.6-35.6s35.6,16,35.6,35.6
	S119.6,120.1,100,120.1z"/>
<path id="XMLID_103_" class="st0" d="M40,174.9C17.1,156.6,4,129.3,4,100C4,47.1,47.1,4,100,4s96,43.1,96,96
	c0,29.3-13.1,56.6-36,74.9l0,0c-17.2,13.8-38,21.1-60,21.1S57.2,188.7,40,174.9z"/>
<path id="XMLID_83_" class="st0" d="M33.5,170.1c9-29,35.6-48.8,66.5-48.8c30.8,0,57.4,19.8,66.5,48.8"/>
</svg>
