<?xml version="1.0" encoding="utf-8"?>
<!-- Generator: Adobe Illustrator 21.0.0, SVG Export Plug-In . SVG Version: 6.00 Build 0)  -->
<svg version="1.1" id="Layer_1" xmlns="http://www.w3.org/2000/svg" xmlns:xlink="http://www.w3.org/1999/xlink" x="0px" y="0px"
	 viewBox="0 0 200 200" style="enable-background:new 0 0 200 200;" xml:space="preserve">
<style type="text/css">
	.st0{fill:#FFFFFF;stroke:#FFFFFF;stroke-width:3;stroke-miterlimit:10;}
	.st1{fill:none;stroke:#FFFFFF;stroke-width:8;stroke-miterlimit:10;}
</style>
<g id="XMLID_195_">
	<path id="XMLID_347_" class="st0" d="M147.6,28.9c17.9,0,32.7,5.5,44,16.4c0.3,0.2,0.4,0.6,0.4,0.9v123.5c0,0.5-0.3,1-0.8,1.2
		c-0.2,0.1-0.3,0.1-0.5,0.1c-0.3,0-0.7-0.1-0.9-0.4c-10.8-10.4-25-15.7-42.2-15.7c-23.6,0-44.7,10-46.9,11h-0.1h-0.1h-0.1
		c-0.1,0-0.2,0.1-0.3,0.1l0,0l0,0H100l0,0l0,0c-0.1,0-0.2,0-0.3-0.1l0,0l-0.1-0.1l0,0l0,0c0,0-0.1,0-0.1-0.1c0,0,0,0-0.1,0l-0.1-0.1
		c-0.1-0.1-0.2-0.2-0.3-0.2c-9.8-9.3-22.4-14-37.6-14c-26.3,0-51,14.3-51.3,14.4c-0.2,0.1-0.4,0.2-0.7,0.2c-0.2,0-0.4-0.1-0.6-0.2
		C8.3,165.9,8,165.5,8,165V41.5c0-0.5,0.3-0.9,0.7-1.2c0.6-0.3,14.4-7.2,32.9-10.1c5.2-0.8,10.4-1.3,15.2-1.3
		c15.1,0,28.1,3.9,38.6,11.7l2,1.4l1.8-1.6c0.1-0.1,0.2-0.2,0.3-0.2C100.3,39.8,122.4,28.9,147.6,28.9 M147.6,25.9
		C121.7,25.9,99,37.1,98,37.6c-0.3,0.2-0.6,0.4-0.9,0.6c-11-8.2-24.7-12.3-40.4-12.3c-5,0-10.3,0.4-15.7,1.3
		c-18.7,3-33,10.1-33.6,10.4C5.9,38.3,5,39.8,5,41.5V165c0,1.5,0.8,3,2.2,3.7c0.7,0.4,1.4,0.6,2.1,0.6c0.8,0,1.5-0.2,2.2-0.6
		c0.4-0.2,24.4-14,49.8-14c12.5,0,25.3,3.4,35.8,13.4c0.1,0,0.1,0.1,0.2,0.1c0.2,0.2,0.4,0.3,0.6,0.4c0.2,0.1,0.3,0.1,0.5,0.2
		c0.1,0.1,0.2,0.1,0.3,0.1c0.4,0.2,0.9,0.3,1.4,0.3h0.1c0.3,0,0.6,0,0.9-0.1h0.1c0.3-0.1,0.6-0.2,0.9-0.3h0.1
		c0.2-0.1,21.9-10.8,45.7-10.8c16.4,0,29.9,5,40.1,14.8c0.8,0.8,1.9,1.2,3,1.2c0.6,0,1.1-0.1,1.7-0.3c1.6-0.7,2.6-2.2,2.6-4V46.3
		c0-1.2-0.5-2.3-1.3-3.1C181.8,31.7,166.3,25.9,147.6,25.9L147.6,25.9z"/>
</g>
<line id="XMLID_194_" class="st1" x1="97.5" y1="40.1" x2="100" y2="167.1"/>
</svg>
