<?xml version="1.0" encoding="utf-8"?>
<!-- Generator: Adobe Illustrator 21.0.0, SVG Export Plug-In . SVG Version: 6.00 Build 0)  -->
<svg version="1.1" id="Layer_1" xmlns="http://www.w3.org/2000/svg" xmlns:xlink="http://www.w3.org/1999/xlink" x="0px" y="0px"
	 viewBox="0 0 200 200" style="enable-background:new 0 0 200 200;" xml:space="preserve">
<style type="text/css">
	.st0{fill:#B98EC1;}
	.st1{stroke:#000000;stroke-width:2;stroke-miterlimit:10;}
	.st2{fill:none;stroke:#000000;stroke-width:6;stroke-miterlimit:10;}
</style>
<path class="st0" d="M24.1,195.6h121.3v-2c0-20.7-16.8-37.6-37.6-37.6H61.7c-20.7,0-37.6,16.8-37.6,37.6
	C24.1,193.6,24.1,195.6,24.1,195.6z"/>
<path class="st0" d="M81.7,67.6c-18.2,0-33,14.8-33,33s14.8,33,33,33s33-14.8,33-33S99.9,67.6,81.7,67.6z"/>
<g>
	<g>
		<path class="st1" d="M76.2,135.9c-22.4,0-40.8-18.3-40.8-40.8c0-22.4,18.3-40.8,40.8-40.8c22.4,0,40.8,18.3,40.8,40.8
			C117,117.5,98.6,135.9,76.2,135.9z M76.2,59.8c-19.5,0-35.3,15.8-35.3,35.3s15.8,35.3,35.3,35.3s35.3-15.8,35.3-35.3
			S95.6,59.8,76.2,59.8z"/>
		<path class="st1" d="M144.7,197H7.6c-1.5,0-2.7-1.2-2.7-2.7v-4.8c0-25.5,20.8-46.2,46.2-46.2h50.1c25.5,0,46.2,20.8,46.2,46.2v4.8
			C147.4,195.8,146.2,197,144.7,197z M10.3,191.6H142v-2.2c0-22.4-18.3-40.8-40.8-40.8H51.1c-22.4,0-40.8,18.3-40.8,40.8
			C10.3,189.4,10.3,191.6,10.3,191.6z"/>
	</g>
</g>
<g transform="translate(23.000000, 57.000000)">
	<path class="st1" d="M115.1-22.5c0,3-2.4,5.4-5.4,5.4s-5.4-2.4-5.4-5.4s2.4-5.4,5.4-5.4S115.1-25.4,115.1-22.5"/>
	<path class="st1" d="M136.2-22.5c0,3-2.4,5.4-5.4,5.4s-5.4-2.4-5.4-5.4s2.4-5.4,5.4-5.4S136.2-25.4,136.2-22.5"/>
	<path class="st1" d="M157.3-22.5c0,3-2.4,5.4-5.4,5.4s-5.4-2.4-5.4-5.4s2.4-5.4,5.4-5.4C154.9-27.9,157.3-25.4,157.3-22.5"/>
</g>
<g transform="translate(7.000000, 11.399400)">
	<path class="st2" d="M150.5,54.4c-10.3,0-19.8-2.3-27.9-6.9c-0.5-0.3-1.2-0.3-1.8,0s-0.9,0.9-0.9,1.5v13
		c-4.8-5.7-14.1-17.7-15.8-27.5c-0.9-4.8-2-17.2,6.4-27c7.7-9.2,21.3-13.9,40.6-13.9c21.9,0,37.2,12,37.2,29
		C188.2,38,175,54.4,150.5,54.4"/>
</g>
</svg>
