<?xml version="1.0" encoding="utf-8"?>
<!-- Generator: Adobe Illustrator 21.0.0, SVG Export Plug-In . SVG Version: 6.00 Build 0)  -->
<svg version="1.1" id="Layer_1" xmlns="http://www.w3.org/2000/svg" xmlns:xlink="http://www.w3.org/1999/xlink" x="0px" y="0px"
	 viewBox="0 0 100 100" style="enable-background:new 0 0 100 100;" xml:space="preserve">
<style type="text/css">
	.st0{fill:#65C2EA;}
	.st1{font-family:'Ubuntu-Medium';}
	.st2{font-size:40px;}
</style>
<path class="st0" d="M83.4,93.4H24.6c-4.4,0-8-3.6-8-8V21.3c0-4.4,3.6-8,8-8h58.8c4.4,0,8,3.6,8,8v64.1
	C91.4,89.8,87.8,93.4,83.4,93.4z"/>
<g>
	<rect x="6.7" y="79" width="12" height="2"/>
</g>
<g>
	<rect x="6.7" y="69" width="12" height="2"/>
</g>
<g>
	<rect x="6.7" y="59" width="12" height="2"/>
</g>
<g>
	<rect x="6.7" y="49" width="12" height="2"/>
</g>
<g>
	<rect x="6.7" y="39" width="12" height="2"/>
</g>
<g>
	<rect x="6.7" y="29" width="12" height="2"/>
</g>
<g>
	<rect x="6.7" y="19" width="12" height="2"/>
</g>
<g>
	<path d="M80.3,95h-55c-7.2,0-13-5.8-13-13V18c0-7.2,5.8-13,13-13h55c7.2,0,13,5.8,13,13v64C93.3,89.2,87.4,95,80.3,95z M25.3,7
		c-6.1,0-11,4.9-11,11v64c0,6.1,4.9,11,11,11h55c6.1,0,11-4.9,11-11V18c0-6.1-4.9-11-11-11H25.3z"/>
</g>
<g>
	<path d="M53.7,76c-14.3,0-26-11.7-26-26c0-14.3,11.7-26,26-26c14.3,0,26,11.7,26,26C79.7,64.3,68.1,76,53.7,76z M53.7,26
		c-13.2,0-24,10.8-24,24s10.8,24,24,24s24-10.8,24-24S67,26,53.7,26z"/>
</g>
<text transform="matrix(1 0 0 1 47.8806 64.4073)" class="st1 st2">i</text>
</svg>
