<?xml version="1.0" encoding="utf-8"?>
<!-- Generator: Adobe Illustrator 21.0.0, SVG Export Plug-In . SVG Version: 6.00 Build 0)  -->
<svg version="1.1" id="Layer_1" xmlns="http://www.w3.org/2000/svg" xmlns:xlink="http://www.w3.org/1999/xlink" x="0px" y="0px"
	 viewBox="0 0 300 200" style="enable-background:new 0 0 300 200;" xml:space="preserve">
<style type="text/css">
	.st0{fill:#FDF38A;}
	.st1{fill:#FFFFFF;}
</style>
<polygon class="st0" points="291,145.6 95.2,145.6 66.6,139.5 66.6,84.7 291,84.7 "/>
<g>
	<g>
		<g>
			<path d="M121.1,165.1c-11.2,0-20.3-9.2-20.3-20.3c0-11.2,9.2-20.3,20.3-20.3s20.3,9.2,20.3,20.3S132.3,165.1,121.1,165.1z
				 M121.1,132.6c-6.6,0-12.1,5.6-12.1,12.1c0,6.6,5.6,12.1,12.1,12.1s12.1-5.6,12.1-12.1S128,132.6,121.1,132.6z"/>
		</g>
		<g>
			<path d="M243.2,165.1c-11.2,0-20.3-9.2-20.3-20.3c0-11.2,9.2-20.3,20.3-20.3c11.2,0,20.3,9.2,20.3,20.3S254.3,165.1,243.2,165.1z
				 M243.2,132.6c-6.6,0-12.1,5.6-12.1,12.1c0,6.6,5.6,12.1,12.1,12.1c6.6,0,12.1-5.6,12.1-12.1S250.1,132.6,243.2,132.6z"/>
		</g>
		<g>
			<path d="M291.1,88.7H67.7c-2.3,0-3.9-2-3.9-3.9s2-3.9,3.9-3.9h223.4c2.3,0,3.9,2,3.9,3.9S293.4,88.7,291.1,88.7z"/>
		</g>
		<g>
			<path d="M173,133.3c-0.7,0-1.3-0.3-2-0.7c-2-1-2.6-3.6-1.6-5.6l18-31.5c1-2,3.6-2.6,5.6-1.6c2,1,2.6,3.6,1.6,5.6l-18,31.5
				C175.9,132.6,174.6,133.3,173,133.3z"/>
		</g>
		<g>
			<path d="M192.3,134.6c-0.7,0-1.3-0.3-2-0.7c-2-1-2.6-3.6-1.6-5.6l18-31.5c1-2,3.6-2.6,5.6-1.6s2.6,3.6,1.6,5.6l-18,31.5
				C194.9,133.6,193.6,134.6,192.3,134.6z"/>
		</g>
		<g>
			<path d="M93.9,88.7c-2.3,0-3.9-2-3.9-3.9V60.1c0-2.3,2-3.9,3.9-3.9c2,0,3.9,2,3.9,3.9v24.6C98.2,86.7,96.2,88.7,93.9,88.7z"/>
		</g>
		<g>
			<path d="M137.5,88.7c-2.3,0-3.9-2-3.9-3.9V60.1c0-2.3,2-3.9,3.9-3.9c2,0,3.9,2,3.9,3.9v24.6C141.5,86.7,139.8,88.7,137.5,88.7z"
				/>
		</g>
		<g>
			<path d="M177.9,88.7c-2.3,0-3.9-2-3.9-3.9V60.1c0-2.3,2-3.9,3.9-3.9c2,0,3.9,2,3.9,3.9v24.6C182.1,86.7,180.2,88.7,177.9,88.7z"
				/>
		</g>
		<g>
			<path d="M218.6,88.7c-2.3,0-3.9-2-3.9-3.9V60.1c0-2.3,2-3.9,3.9-3.9s3.9,2,3.9,3.9v24.6C222.5,86.7,220.9,88.7,218.6,88.7z"/>
		</g>
		<g>
			<path d="M259.6,88.7c-2.3,0-3.9-2-3.9-3.9V60.1c0-2.3,2-3.9,3.9-3.9s3.9,2,3.9,3.9v24.6C263.5,86.7,261.5,88.7,259.6,88.7z"/>
		</g>
		<g>
			<path d="M89.3,149c-0.3,0-0.3,0-0.7,0l-34.8-5.9c-2-0.3-3.3-2-3.3-3.9V38.8c0-2.3,2-3.9,3.9-3.9h230.6c2,0,3.9,1.6,3.9,3.6
				l5.9,45.9c0,0.3,0,0.3,0,0.7v60.4c0,2.3-2,3.9-3.9,3.9h-21.3c-2.3,0-3.9-2-3.9-3.9c0-2,2-3.9,3.9-3.9h17.1V84.7l-5.2-42H58.8
				v92.8l31.2,5.2c2.3,0.3,3.6,2.6,3.3,4.6C92.9,147.4,91.3,149,89.3,149z"/>
		</g>
		<g>
			<path d="M211,149h-61.7c-2.3,0-3.9-2-3.9-3.9c0-2,2-3.9,3.9-3.9H211c2.3,0,3.9,2,3.9,3.9C215,147.1,213.3,149,211,149z"/>
		</g>
		<g>
			<path d="M41.1,118.5H8.9c-2.3,0-3.9-2-3.9-3.9c0-2,2-3.9,3.9-3.9h32.1c2.3,0,3.9,2,3.9,3.9C45,116.6,43.4,118.5,41.1,118.5z"/>
		</g>
		<g>
			<path d="M41.1,134.3H22.4c-2.3,0-3.9-2-3.9-3.9s2-3.9,3.9-3.9h18.7c2.3,0,3.9,2,3.9,3.9S43.4,134.3,41.1,134.3z"/>
		</g>
	</g>
</g>
<path class="st1" d="M121.1,132.6c-6.6,0-12.1,5.6-12.1,12.1c0,6.6,5.6,12.1,12.1,12.1s12.1-5.6,12.1-12.1S128,132.6,121.1,132.6z"
	/>
<path class="st1" d="M243.2,132.6c-6.6,0-12.1,5.6-12.1,12.1c0,6.6,5.6,12.1,12.1,12.1c6.6,0,12.1-5.6,12.1-12.1
	S250.1,132.6,243.2,132.6z"/>
</svg>
