<?xml version="1.0" encoding="utf-8"?>
<!-- Generator: Adobe Illustrator 21.0.0, SVG Export Plug-In . SVG Version: 6.00 Build 0)  -->
<svg version="1.1" id="Layer_1" xmlns="http://www.w3.org/2000/svg" xmlns:xlink="http://www.w3.org/1999/xlink" x="0px" y="0px"
	 viewBox="0 0 100 100" style="enable-background:new 0 0 100 100;" xml:space="preserve">
<style type="text/css">
	.st0{fill:#65AEEA;}
	.st1{stroke:#000000;stroke-miterlimit:10;}
	.st2{fill:#FFFFFF;}
</style>
<g>
	<path class="st0" d="M73.4,75.2c0,12.1-8.7,20.9-20.9,20.9s-21.8-8.7-21.8-20.9V25.6h37c0,0,0-16.9,0-18.6s0.6-4,3-4s2.6,2.5,2.6,4
		v68.2H73.4z"/>
</g>
<g>
	<path class="st1" d="M54.8,82.6h-9.7c-0.5,0-0.8,0.3-0.8,0.8s0.3,0.8,0.8,0.8h9.7c0.5,0,0.8-0.3,0.8-0.8S55.1,82.6,54.8,82.6z"/>
	<path class="st1" d="M37.1,65.7h25.6c1.8,0,3.3-1.5,3.3-3.3V41.8c0-1.8-1.5-3.3-3.3-3.3H37.1c-1.8,0-3.3,1.5-3.3,3.3v20.6
		C33.8,64.2,35.3,65.7,37.1,65.7z"/>
	<path class="st1" d="M69.5,2c-2.6,0-4.7,2.1-4.7,4.7v13.9H26.5c-0.5,0-0.8,0.3-0.8,0.8v52.4C25.8,87.1,36.7,98,50,98
		s24.2-10.9,24.2-24.2V6.7C74.2,4.1,72.1,2,69.5,2z M66.2,6.7c0-1.8,1.5-3.2,3.2-3.2s3.2,1.5,3.2,3.2v13.9h-6.5L66.2,6.7L66.2,6.7z
		 M72.7,73.6c0,12.6-10.1,22.7-22.7,22.7S27.3,86.2,27.3,73.6V22h45.4V73.6z"/>
	<path class="st1" d="M50,35c2.3,0,4.2-1.8,4.2-4.2s-1.8-4.2-4.2-4.2s-4.2,1.8-4.2,4.2S47.6,35,50,35z M50,28c1.5,0,2.7,1.2,2.7,2.7
		s-1.2,2.7-2.7,2.7s-2.7-1.2-2.7-2.7C47.3,29.3,48.5,28,50,28z"/>
</g>
<path class="st2" d="M36.5,42.6c0-1,0.8-1.7,1.7-1.7h23.7c1,0,1.7,0.8,1.7,1.7v19c0,1-0.8,1.7-1.7,1.7H38.2c-1,0-1.7-0.8-1.7-1.7
	C36.5,61.6,36.5,42.6,36.5,42.6z"/>
</svg>
