<?xml version="1.0" encoding="utf-8"?>
<!-- Generator: Adobe Illustrator 21.0.0, SVG Export Plug-In . SVG Version: 6.00 Build 0)  -->
<svg version="1.1" id="Layer_1" xmlns="http://www.w3.org/2000/svg" xmlns:xlink="http://www.w3.org/1999/xlink" x="0px" y="0px"
	 viewBox="0 0 100 100" style="enable-background:new 0 0 100 100;" xml:space="preserve">
<style type="text/css">
	.st0{fill:#A4D67C;}
</style>
<path class="st0" d="M89.6,76.9c3.1,0,5.7-2.6,5.7-5.7v-50c0-3.1-2.6-5.7-5.7-5.7H18.4c-3.1,0-5.7,2.6-5.7,5.7v50
	c0,3.1,2.6,5.7,5.7,5.7h47.2l12.8,11.8l0.2-11.7L89.6,76.9z"/>
<path d="M2,15.2c0,4.7,0,55,0,55c0,5.6,4.6,10.1,10.1,10.1h51.1L78.8,94c0.4,0.4,1.1,0.6,1.7,0.6c0.3,0,0.7,0,1-0.3
	c0.9-0.4,1.4-1.3,1.4-2.3V80.2h5c5.6,0,10.1-4.6,10.1-10.1V15.5C98,10,93.4,5.4,87.9,5.4c0,0-69.9,0-75.9,0S2,10.5,2,15.2z
	 M87.7,10.4c2.8,0,5,2.3,5,5v54.8c0,2.8-2.3,5-5,5h-7.4c-1.4,0-2.6,1.1-2.6,2.6v8.8L65.7,75.9c-0.4-0.4-1-0.6-1.7-0.6H12.1
	C9.3,75.2,7,72.9,7,70.2l0,0c0,0,0-52,0-55s2.1-5,4.8-5S87.7,10.4,87.7,10.4z"/>
<circle cx="24.4" cy="42.9" r="6.4"/>
<circle cx="50" cy="42.9" r="6.4"/>
<circle cx="75.6" cy="42.9" r="6.4"/>
</svg>
