<?xml version="1.0" encoding="utf-8"?>
<!-- Generator: Adobe Illustrator 21.0.0, SVG Export Plug-In . SVG Version: 6.00 Build 0)  -->
<svg version="1.1" id="Layer_1" xmlns="http://www.w3.org/2000/svg" xmlns:xlink="http://www.w3.org/1999/xlink" x="0px" y="0px"
	 viewBox="0 0 100 100" style="enable-background:new 0 0 100 100;" xml:space="preserve">
<style type="text/css">
	.st0{fill:#F26F70;}
	.st1{fill:none;stroke:#000000;stroke-width:4;stroke-linecap:square;stroke-miterlimit:10;}
	.st2{fill:none;stroke:#000000;stroke-width:3;stroke-miterlimit:10;}
</style>
<path class="st0" d="M88,72.4H18c-4.4,0-8-3.6-8-8V28.1c0-4.4,3.6-8,8-8h70c4.4,0,8,3.6,8,8v36.3C96,68.8,92.4,72.4,88,72.4z"/>
<path d="M88.4,73.8c5.5,0,9.6-3.3,9.6-7.7V17.5c0-4.1-4.1-7.7-9.6-7.7H11.6C6.1,9.8,2,13.4,2,17.5v48.4c0,4.4,4.1,7.7,9.6,7.7
	L88.4,73.8z M94.2,65.9c0,2.5-2.6,4.6-5.8,4.6H11.6c-3.2,0-5.8-2.1-5.8-4.6V17.5c0-2.5,2.6-4.6,5.8-4.6h76.8c3.2,0,5.8,2.1,5.8,4.6
	C94.2,17.5,94.2,65.9,94.2,65.9z"/>
<line class="st1" x1="55" y1="73.8" x2="55" y2="90.1"/>
<line class="st1" x1="45" y1="73.8" x2="45" y2="90.1"/>
<line class="st1" x1="26" y1="90.1" x2="74" y2="90.1"/>
<line class="st2" x1="18" y1="32.2" x2="82" y2="32.2"/>
<line class="st2" x1="18" y1="41.8" x2="82" y2="41.8"/>
<line class="st2" x1="18" y1="51.4" x2="58" y2="51.4"/>
</svg>
