<?xml version="1.0" encoding="utf-8"?>
<!-- Generator: Adobe Illustrator 21.0.0, SVG Export Plug-In . SVG Version: 6.00 Build 0)  -->
<svg version="1.1" id="Layer_1" xmlns="http://www.w3.org/2000/svg" xmlns:xlink="http://www.w3.org/1999/xlink" x="0px" y="0px"
	 viewBox="0 0 200 200" style="enable-background:new 0 0 200 200;" xml:space="preserve">
<style type="text/css">
	.st0{fill:#E58352;}
	.st1{fill:#E58353;}
	.st2{fill:none;stroke:#000000;stroke-width:5;stroke-miterlimit:10;}
	.st3{fill:none;stroke:#000000;stroke-width:8;stroke-miterlimit:10;}
</style>
<g>
	<path class="st0" d="M24.2,131.7c4.7,12.8,10.7,25.2,23.7,33.5c0,0.4-0.4,1.2-0.4,1.9c0,2.3,1.6,14.9,3.9,14.9h21.3h61h16.5
		c2.3,0,6.1-10.1,6.1-12.4c0-0.8-0.4-1.6-0.8-2.3c11.3-5.8,18-23,22.7-35L24.2,131.7z"/>
	<path class="st1" d="M178.2,131.7H29.1c-6.2,0-11.2-5.1-11.2-11.2v0c0-5.2,4.2-9.4,9.4-9.4H180c5.2,0,9.4,4.2,9.4,9.4v0
		C189.4,126.7,184.3,131.7,178.2,131.7z"/>
	<g>
		<path d="M185.1,82.6c1.7,0,3.3,1.4,3.6,3.1c0.4,1.9-1.2,3.9-3.1,4.2c-13.1,1.9-26.2,10.9-34.7,17h24.8c7.7,0,13.3,5.7,13.3,13
			c0,6.5-5,11-11.2,12.2c-4.6,11.9-13.5,28.5-24.6,34.3c0.4,0.8,0.8,1.5,0.8,2.3c0,2.3-1.5,11.9-3.9,11.9h-21.9H67.8H45.9
			c-2.3,0-3.9-9.5-3.9-11.9c0-0.8,0.4-1.5,0.4-1.9c-11.6-6.2-20.8-22.6-25.4-35.3c-3.5-2.3-6.2-6.5-6.2-11.2
			c0-7.7,6.2-13.5,13.5-13.5h113.2c5-4.2,26.2-20.8,47-24.3C184.7,82.6,184.9,82.6,185.1,82.6 M185.1,77.6L185.1,77.6
			c-0.5,0-1,0-1.5,0.1c-9.5,1.6-19.9,5.8-31.1,12.5c-7.8,4.7-13.9,9.3-16.8,11.7H24.3c-10.2,0-18.5,8.3-18.5,18.5
			c0,5.4,2.6,10.8,7,14.3c2.7,7,6.2,13.9,10.1,19.7c4.4,6.6,9.2,11.6,14.1,15c0.1,1.9,0.6,4.9,1.2,7.4c0.6,2.4,2.2,8.8,7.6,8.8h21.9
			h60.5h21.9c5.4,0,7-6.4,7.6-8.8c0.7-2.7,1.2-6.2,1.2-8c11.3-7.9,19-23.6,22.6-32.4c7.6-2.5,12.5-8.8,12.5-16.4
			c0-10.3-7.9-18-18.3-18h-8.1c6-3.4,12.4-6.2,18.7-7.1l0.1,0l0.1,0c4.7-0.9,7.9-5.6,7-10.1C192.8,80.7,189.2,77.6,185.1,77.6
			L185.1,77.6z"/>
	</g>
	<path class="st2" d="M157.7,167l-120,0.4"/>
	<path class="st2" d="M182.3,133.5l-168-0.7"/>
	<path class="st2" d="M174.9,104.5l-44.5-0.1"/>
	<path class="st3" d="M61.1,17.9c11.2,14.8-1.6,29.7-3.4,39.4c-2,10.6,5,21.2,11.3,25.9"/>
	<path class="st3" d="M94.8,17.9c11.2,14.8-1.6,29.7-3.4,39.4c-2,10.6,5,21.2,11.3,25.9"/>
	<path class="st3" d="M128.4,17.9c11.2,14.8-1.6,29.7-3.4,39.4c-2,10.6,5,21.2,11.3,25.9"/>
</g>
</svg>
