<?xml version="1.0" encoding="utf-8"?>
<!-- Generator: Adobe Illustrator 21.0.0, SVG Export Plug-In . SVG Version: 6.00 Build 0)  -->
<svg version="1.1" id="Layer_1" xmlns="http://www.w3.org/2000/svg" xmlns:xlink="http://www.w3.org/1999/xlink" x="0px" y="0px"
	 viewBox="0 0 120 200" style="enable-background:new 0 0 120 200;" xml:space="preserve">
<style type="text/css">
	.st0{fill:#376D7F;}
	.st1{fill:none;stroke:#376D7F;stroke-width:1.5;stroke-miterlimit:10;}
</style>
<g>
	<g>
		<path class="st0" d="M91.5,29.1C91.5,29.1,91.5,29.1,91.5,29.1l0.1,86.6c0,0,0,0.1-0.1,0.1h-63c0,0-0.1,0-0.1-0.1V29.2
			c0,0,0-0.1,0.1-0.1H91.5 M91.5,27.6h-63c-0.9,0-1.6,0.7-1.6,1.6v86.6c0,0.9,0.7,1.6,1.6,1.6h63c0.9,0,1.6-0.7,1.6-1.6V29.2
			C93,28.3,92.3,27.6,91.5,27.6L91.5,27.6z"/>
	</g>
	<g>
		<path class="st0" d="M91.5,5.5c2.1,0,4.1,0.8,5.6,2.3c1.5,1.5,2.3,3.5,2.3,5.6v173.1c0,4.4-3.6,7.9-7.9,7.9h-63
			c-4.4,0-7.9-3.6-7.9-7.9V13.4c0-4.4,3.6-7.9,7.9-7.9H91.5 M91.5,4h-63c-5.2,0-9.4,4.2-9.4,9.4v173.1c0,5.2,4.2,9.4,9.4,9.4h63
			c5.2,0,9.4-4.2,9.4-9.4V13.4C100.9,8.2,96.7,4,91.5,4L91.5,4z"/>
	</g>
	<g>
		<path class="st0" d="M67.9,13.4C67.9,13.4,67.9,13.4,67.9,13.4c0.1,0.1,0,0.1,0,0.1H52.1c0,0-0.1,0-0.1-0.1s0-0.1,0.1-0.1H67.9
			 M67.9,11.9H52.1c-0.9,0-1.6,0.7-1.6,1.6s0.7,1.6,1.6,1.6h15.7c0.9,0,1.6-0.7,1.6-1.6S68.7,11.9,67.9,11.9L67.9,11.9z"/>
	</g>
	<g>
		<path class="st0" d="M44.3,178.6C44.3,178.6,44.3,178.6,44.3,178.6l0.1,7.9c0,0,0,0.1-0.1,0.1H28.5c0,0-0.1,0-0.1-0.1v-7.9
			c0,0,0-0.1,0.1-0.1H44.3 M44.3,177.1H28.5c-0.9,0-1.6,0.7-1.6,1.6v7.9c0,0.9,0.7,1.6,1.6,1.6h15.7c0.9,0,1.6-0.7,1.6-1.6v-7.9
			C45.8,177.8,45.1,177.1,44.3,177.1L44.3,177.1z"/>
	</g>
	<g>
		<path class="st0" d="M67.9,178.6C67.9,178.6,67.9,178.6,67.9,178.6l0.1,7.9c0,0,0,0.1-0.1,0.1H52.1c0,0-0.1,0-0.1-0.1v-7.9
			c0,0,0-0.1,0.1-0.1H67.9 M67.9,177.1H52.1c-0.9,0-1.6,0.7-1.6,1.6v7.9c0,0.9,0.7,1.6,1.6,1.6h15.7c0.9,0,1.6-0.7,1.6-1.6v-7.9
			C69.4,177.8,68.7,177.1,67.9,177.1L67.9,177.1z"/>
	</g>
	<g>
		<path class="st0" d="M91.5,178.6C91.5,178.6,91.6,178.6,91.5,178.6l0.1,7.9c0,0,0,0.1-0.1,0.1H75.7c0,0-0.1,0-0.1-0.1v-7.9
			c0,0,0-0.1,0.1-0.1H91.5 M91.5,177.1H75.7c-0.9,0-1.6,0.7-1.6,1.6v7.9c0,0.9,0.7,1.6,1.6,1.6h15.7c0.9,0,1.6-0.7,1.6-1.6v-7.9
			C93,177.8,92.3,177.1,91.5,177.1L91.5,177.1z"/>
	</g>
	<g>
		<path class="st0" d="M44.3,162.9C44.3,162.9,44.3,162.9,44.3,162.9l0.1,7.9c0,0,0,0.1-0.1,0.1H28.5c0,0-0.1,0-0.1-0.1V163
			c0,0,0-0.1,0.1-0.1H44.3 M44.3,161.4H28.5c-0.9,0-1.6,0.7-1.6,1.6v7.9c0,0.9,0.7,1.6,1.6,1.6h15.7c0.9,0,1.6-0.7,1.6-1.6V163
			C45.8,162.1,45.1,161.4,44.3,161.4L44.3,161.4z"/>
	</g>
	<g>
		<path class="st0" d="M67.9,162.9C67.9,162.9,67.9,162.9,67.9,162.9l0.1,7.9c0,0,0,0.1-0.1,0.1H52.1c0,0-0.1,0-0.1-0.1V163
			c0,0,0-0.1,0.1-0.1H67.9 M67.9,161.4H52.1c-0.9,0-1.6,0.7-1.6,1.6v7.9c0,0.9,0.7,1.6,1.6,1.6h15.7c0.9,0,1.6-0.7,1.6-1.6V163
			C69.4,162.1,68.7,161.4,67.9,161.4L67.9,161.4z"/>
	</g>
	<g>
		<path class="st0" d="M91.5,162.9C91.5,162.9,91.6,162.9,91.5,162.9l0.1,7.9c0,0,0,0.1-0.1,0.1H75.7c0,0-0.1,0-0.1-0.1V163
			c0,0,0-0.1,0.1-0.1H91.5 M91.5,161.4H75.7c-0.9,0-1.6,0.7-1.6,1.6v7.9c0,0.9,0.7,1.6,1.6,1.6h15.7c0.9,0,1.6-0.7,1.6-1.6V163
			C93,162.1,92.3,161.4,91.5,161.4L91.5,161.4z"/>
	</g>
	<g>
		<path class="st0" d="M44.3,147.1C44.3,147.1,44.3,147.2,44.3,147.1l0.1,7.9c0,0,0,0.1-0.1,0.1H28.5c0,0-0.1,0-0.1-0.1v-7.9
			c0,0,0-0.1,0.1-0.1H44.3 M44.3,145.6H28.5c-0.9,0-1.6,0.7-1.6,1.6v7.9c0,0.9,0.7,1.6,1.6,1.6h15.7c0.9,0,1.6-0.7,1.6-1.6v-7.9
			C45.8,146.3,45.1,145.6,44.3,145.6L44.3,145.6z"/>
	</g>
	<g>
		<path class="st0" d="M67.9,147.1C67.9,147.1,67.9,147.2,67.9,147.1l0.1,7.9c0,0,0,0.1-0.1,0.1H52.1c0,0-0.1,0-0.1-0.1v-7.9
			c0,0,0-0.1,0.1-0.1H67.9 M67.9,145.6H52.1c-0.9,0-1.6,0.7-1.6,1.6v7.9c0,0.9,0.7,1.6,1.6,1.6h15.7c0.9,0,1.6-0.7,1.6-1.6v-7.9
			C69.4,146.3,68.7,145.6,67.9,145.6L67.9,145.6z"/>
	</g>
	<g>
		<path class="st0" d="M91.5,147.1C91.5,147.1,91.6,147.2,91.5,147.1l0.1,7.9c0,0,0,0.1-0.1,0.1H75.7c0,0-0.1,0-0.1-0.1v-7.9
			c0,0,0-0.1,0.1-0.1H91.5 M91.5,145.6H75.7c-0.9,0-1.6,0.7-1.6,1.6v7.9c0,0.9,0.7,1.6,1.6,1.6h15.7c0.9,0,1.6-0.7,1.6-1.6v-7.9
			C93,146.3,92.3,145.6,91.5,145.6L91.5,145.6z"/>
	</g>
	<g>
		<path class="st0" d="M91.5,123.5C91.5,123.5,91.5,123.6,91.5,123.5l0.1,7.9v7.9c0,0,0,0.1-0.1,0.1H75.7c0,0-0.1,0-0.1-0.1v-7.9
			v-7.9c0,0,0-0.1,0.1-0.1H91.5 M91.5,122H75.7c-0.9,0-1.6,0.7-1.6,1.6v7.9v7.9c0,0.9,0.7,1.6,1.6,1.6h15.7c0.9,0,1.6-0.7,1.6-1.6
			v-7.9v-7.9C93,122.7,92.3,122,91.5,122L91.5,122z"/>
	</g>
	<path class="st1" d="M44.3,122H28.5c-0.9,0-1.6,0.7-1.6,1.6v7.9v7.9c0,0.9,0.7,1.6,1.6,1.6h15.7c0.9,0,1.6-0.7,1.6-1.6v-7.9v-7.9
		C45.8,122.7,45.1,122,44.3,122z M45.8,131.9H26.9 M93,131.9H74.1"/>
	<g>
		<path class="st0" d="M60,123.5c4.4,0,7.9,3.6,7.9,7.9s-3.6,7.9-7.9,7.9s-7.9-3.6-7.9-7.9S55.6,123.5,60,123.5 M60,122
			c-5.2,0-9.4,4.2-9.4,9.4c0,5.2,4.2,9.4,9.4,9.4s9.4-4.2,9.4-9.4C69.4,126.3,65.2,122,60,122L60,122z"/>
	</g>
</g>
</svg>
