<?xml version="1.0" encoding="utf-8"?>
<!-- Generator: Adobe Illustrator 19.0.0, SVG Export Plug-In . SVG Version: 6.00 Build 0)  -->
<svg version="1.1" id="Layer_1" xmlns="http://www.w3.org/2000/svg" xmlns:xlink="http://www.w3.org/1999/xlink" x="0px" y="0px"
	 viewBox="0 0 200 200" style="enable-background:new 0 0 200 200;" xml:space="preserve">
<style type="text/css">
	.st0{fill:#454545;}
</style>
<g>
	<path class="st0" d="M167.8,193.9H33c-1.7,0-3.1-1.4-3.1-3.1V13.4c0-1.7,1.4-3.1,3.1-3.1h134.8c1.7,0,3.1,1.4,3.1,3.1v177.4
		C170.9,192.5,169.5,193.9,167.8,193.9z M36.1,187.6h128.5V16.5H36.1V187.6z"/>
</g>
<g>
	<rect id="XMLID_11_" x="77.6" y="1.9" class="st0" width="45.4" height="23"/>
</g>
<g>
	<path id="XMLID_10_" class="st0" d="M146.1,51.7H73.5c-1.7,0-3.1-1.4-3.1-3.1c0-1.7,1.4-3.1,3.1-3.1h72.6c1.7,0,3.1,1.4,3.1,3.1
		C149.2,50.3,147.8,51.7,146.1,51.7z"/>
</g>
<g>
	<path id="XMLID_9_" class="st0" d="M56.2,43.9c2.6,0,4.7,2.1,4.7,4.7c0,2.6-2.1,4.7-4.7,4.7c-2.6,0-4.7-2.1-4.7-4.7
		C51.5,46,53.6,43.9,56.2,43.9z"/>
</g>
<g>
	<path id="XMLID_8_" class="st0" d="M146.1,79.3H73.5c-1.7,0-3.1-1.4-3.1-3.1c0-1.7,1.4-3.1,3.1-3.1h72.6c1.7,0,3.1,1.4,3.1,3.1
		C149.2,77.9,147.8,79.3,146.1,79.3z"/>
</g>
<g>
	<path id="XMLID_7_" class="st0" d="M56.2,71.5c2.6,0,4.7,2.1,4.7,4.7c0,2.6-2.1,4.7-4.7,4.7c-2.6,0-4.7-2.1-4.7-4.7
		C51.5,73.6,53.6,71.5,56.2,71.5z"/>
</g>
<g>
	<path id="XMLID_6_" class="st0" d="M146.1,162.1H73.5c-1.7,0-3.1-1.4-3.1-3.1c0-1.7,1.4-3.1,3.1-3.1h72.6c1.7,0,3.1,1.4,3.1,3.1
		C149.2,160.7,147.8,162.1,146.1,162.1z"/>
</g>
<g>
	<path id="XMLID_5_" class="st0" d="M56.2,154.2c2.6,0,4.7,2.1,4.7,4.7c0,2.6-2.1,4.7-4.7,4.7c-2.6,0-4.7-2.1-4.7-4.7
		C51.5,156.3,53.6,154.2,56.2,154.2z"/>
</g>
<g>
	<path id="XMLID_4_" class="st0" d="M146.1,134.5H73.5c-1.7,0-3.1-1.4-3.1-3.1c0-1.7,1.4-3.1,3.1-3.1h72.6c1.7,0,3.1,1.4,3.1,3.1
		C149.2,133.1,147.8,134.5,146.1,134.5z"/>
</g>
<g>
	<path id="XMLID_3_" class="st0" d="M56.2,126.6c2.6,0,4.7,2.1,4.7,4.7c0,2.6-2.1,4.7-4.7,4.7c-2.6,0-4.7-2.1-4.7-4.7
		C51.5,128.7,53.6,126.6,56.2,126.6z"/>
</g>
<g>
	<path id="XMLID_2_" class="st0" d="M146.1,106.9H73.5c-1.7,0-3.1-1.4-3.1-3.1c0-1.7,1.4-3.1,3.1-3.1h72.6c1.7,0,3.1,1.4,3.1,3.1
		C149.2,105.5,147.8,106.9,146.1,106.9z"/>
</g>
<g>
	<path id="XMLID_1_" class="st0" d="M56.2,99c2.6,0,4.7,2.1,4.7,4.7c0,2.6-2.1,4.7-4.7,4.7c-2.6,0-4.7-2.1-4.7-4.7
		C51.5,101.2,53.6,99,56.2,99z"/>
</g>
</svg>
