<?xml version="1.0" encoding="utf-8"?>
<!-- Generator: Adobe Illustrator 19.0.0, SVG Export Plug-In . SVG Version: 6.00 Build 0)  -->
<svg version="1.1" id="Layer_1" xmlns="http://www.w3.org/2000/svg" xmlns:xlink="http://www.w3.org/1999/xlink" x="0px" y="0px"
	 viewBox="0 0 200 200" style="enable-background:new 0 0 200 200;" xml:space="preserve">
<style type="text/css">
	.st0{opacity:0.7;}
	.st1{fill:none;stroke:#010101;stroke-width:5;stroke-miterlimit:10;}
</style>
<g class="st0">
	<path id="XMLID_6_" class="st1" d="M42.4,20.6v164.3c0,8,9,11.1,14.3,11.1c5.3,0,82.1-0.1,87.9,0c7.2,0.1,14.1-3.4,14.1-11.1
		c0-10.2,0-164.3,0-164.3"/>
	<polyline id="XMLID_5_" class="st1" points="28.3,30.6 28.3,16.2 172.8,16.2 172.8,30.6 	"/>
	<path id="XMLID_4_" class="st1" d="M80.2,16.2c0-6.8,9.1-12.2,20.4-12.2c11.3,0,20.4,5.5,20.4,12.2"/>
	<line id="XMLID_3_" class="st1" x1="100.6" y1="180.9" x2="100.6" y2="42.9"/>
	<line id="XMLID_2_" class="st1" x1="75.1" y1="180.9" x2="75.1" y2="42.9"/>
	<line id="XMLID_1_" class="st1" x1="126.1" y1="180.9" x2="126.1" y2="42.9"/>
</g>
</svg>
