<?xml version="1.0" encoding="utf-8"?>
<!-- Generator: Adobe Illustrator 19.0.0, SVG Export Plug-In . SVG Version: 6.00 Build 0)  -->
<svg version="1.1" id="Layer_1" xmlns="http://www.w3.org/2000/svg" xmlns:xlink="http://www.w3.org/1999/xlink" x="0px" y="0px"
	 viewBox="0 0 200 200" style="enable-background:new 0 0 200 200;" xml:space="preserve">
<style type="text/css">
	.st0{opacity:0.7;}
	.st1{fill:#010101;}
</style>
<g id="XMLID_1_" class="st0">
	<path id="XMLID_14_" class="st1" d="M100.7,14.4c3.9,0,14,0.7,22.3,7c7.8,6,12,15.5,12.3,28.2c0.8,35.1-0.7,46.9-12.4,57.1
		l-1.2,1.1l-0.4,1.6c-1.3,5.7-0.2,15.3-0.1,16.3l0.4,3.6l3.5,0.8c0.2,0,17.5,3.8,34.5,11.1c14.7,6.3,32.1,16.5,32.1,29.2v15.9h-91
		h-91v-15.9c0-12.7,17.5-22.9,32.1-29.2c17-7.3,34.3-11.1,34.5-11.1l3.5-0.8l0.4-3.6c0.1-1.1,1.2-10.6-0.1-16.3l-0.4-1.6l-1.2-1.1
		c-11.7-10.3-13.3-22-12.4-57.1c0.3-12.7,4.4-22.1,12.3-28.2C86.7,15.1,96.8,14.4,100.7,14.4 M100.7,9.4c-15.5,0-38.8,8.2-39.5,40.1
		c-0.8,35.6,0.6,49.1,14.1,61c1.1,5.1,0,14.7,0,14.7S4.7,140.4,4.7,170.3c0,13,0,18.7,0,20.9h96h96c0-2.2,0-7.8,0-20.9
		c0-29.9-70.6-45.2-70.6-45.2s-1.1-9.6,0-14.7c13.6-11.9,15-25.4,14.1-61C139.5,17.6,116.2,9.4,100.7,9.4L100.7,9.4z"/>
</g>
</svg>
