<?xml version="1.0" encoding="utf-8"?>
<!-- Generator: Adobe Illustrator 19.0.0, SVG Export Plug-In . SVG Version: 6.00 Build 0)  -->
<svg version="1.1" id="Layer_1" xmlns="http://www.w3.org/2000/svg" xmlns:xlink="http://www.w3.org/1999/xlink" x="0px" y="0px"
	 viewBox="0 0 200 200" style="enable-background:new 0 0 200 200;" xml:space="preserve">
<style type="text/css">
	.st0{opacity:0.7;}
	.st1{fill:#010101;}
</style>
<g class="st0">
	<path id="XMLID_46_" class="st1" d="M64.7,8.2C64.7,8.2,64.7,8.2,64.7,8.2c0.1,0,0.2,0,0.3,0l0.4,5.4c0.2,2.5,1.9,4.7,4.3,5.3
		c1.6,0.4,3,0.9,4.3,1.5l0,0l0,0c0.7,0.3,1.5,0.4,2.2,0.4c1.6,0,3.1-0.6,4.2-1.8l0.1-0.1l0.1-0.1l3.7-4c0.1,0,0.1,0.1,0.2,0.1l-2,5
		c-0.9,2.3-0.3,4.9,1.5,6.6l0,0l0,0c1,0.9,2,1.9,3.3,3.3c1.1,1.2,2.7,1.9,4.3,1.9c0.8,0,1.5-0.2,2.3-0.5l5-2c0,0.1,0.1,0.1,0.1,0.2
		l-4,3.8c-1.8,1.7-2.4,4.3-1.4,6.6c0.7,1.6,1.2,3.1,1.6,4.4c0.7,2.3,2.6,4,5.1,4.2l0.1,0l0.1,0l5.5,0.4c0,0.1,0,0.1,0,0.2l-5.2,1.6
		c-2.4,0.7-4.1,2.9-4.2,5.4l0,0.4c0,0.6-0.1,1.2-0.1,1.7l0,0.1l0,0.1c-0.1,0.8-0.2,1.5-0.3,2.3c-0.4,2.5,0.7,4.8,2.9,6.1l4.8,2.7
		c0,0.1,0,0.1-0.1,0.2l-5.4-0.9C97.9,69,97.6,69,97.3,69c-2.1,0-4.1,1.2-5.1,3.1l0,0l0,0c-0.6,1.1-1.4,2.3-2.4,3.9
		c-1.5,2.1-1.5,4.8,0,6.8l3.1,4.5c-0.1,0.1-0.1,0.1-0.2,0.2l-4.5-3.1l0,0l0,0c-1-0.6-2.1-1-3.3-1c-1.3,0-2.5,0.4-3.5,1.2
		c-1.2,0.9-2.4,1.6-3.9,2.5c-2.2,1.2-3.3,3.7-2.9,6.1l0.9,5.4c-0.1,0-0.2,0.1-0.3,0.1l-2.7-4.7c-1.1-1.9-3-3-5.1-3
		c-0.3,0-0.7,0-1,0.1l0,0l0,0c-1.6,0.3-3.2,0.4-4.6,0.5c-2.5,0.1-4.6,1.8-5.3,4.2l-1.6,5.3c0,0,0,0,0,0l-0.2,0c0,0,0,0,0,0L54,95.4
		c-0.2-2.5-1.9-4.6-4.3-5.3c-1.6-0.4-3-0.9-4.4-1.5c-0.7-0.3-1.5-0.5-2.3-0.5c-1.6,0-3.1,0.6-4.2,1.8L38.7,90l-0.1,0.1l-3.6,4
		c-0.1,0-0.1-0.1-0.2-0.1l2-5.1c0.9-2.3,0.3-4.8-1.5-6.5l0,0l0,0c-1.1-1-2.1-2.1-3.2-3.2c-1.1-1.2-2.7-1.9-4.4-1.9
		c-0.8,0-1.6,0.2-2.3,0.5l-5,2c0-0.1-0.1-0.1-0.1-0.2l4-3.7c1.8-1.7,2.4-4.3,1.4-6.6l0,0l0,0c-0.6-1.3-1.1-2.8-1.5-4.4
		c-0.7-2.3-2.7-4-5.1-4.3l-0.1,0l-0.1,0l-5.4-0.4c0-0.1,0-0.1,0-0.2l5.2-1.6c2.4-0.7,4-2.8,4.2-5.4l0-0.4c0-0.6,0.1-1.2,0.1-1.7
		l0-0.1l0-0.1c0-0.4,0.1-0.9,0.2-1.4c0.1-0.3,0.1-0.6,0.2-0.9c0.4-2.5-0.7-4.8-2.9-6l-4.8-2.8c0-0.1,0-0.1,0.1-0.2L21,40
		c0.3,0.1,0.6,0.1,1,0.1c2.1,0,4.1-1.1,5.2-3l0,0l0,0c0.8-1.5,1.6-2.8,2.4-3.9c1.5-2.1,1.5-4.7,0-6.8l-3.1-4.5
		c0.1-0.1,0.1-0.1,0.2-0.2l4.6,3.2c1,0.7,2.1,1,3.2,1c1.2,0,2.5-0.4,3.5-1.2c1.2-0.9,2.7-1.7,3.9-2.5c2.1-1.2,3.3-3.7,2.9-6.1
		l-0.8-5.4c0.1,0,0.1,0,0.2-0.1l2.7,4.7c1,1.9,3,3,5.2,3c0.3,0,0.7,0,1-0.1l0,0l0,0c1.6-0.3,3.1-0.4,4.6-0.5
		c2.5-0.1,4.6-1.8,5.3-4.2L64.7,8.2 M59.7,88.4c17.3,0,31.7-13,33.6-30.1C95.4,39.7,82,23,63.4,20.9c-1.3-0.1-2.4-0.2-3.5-0.2
		l-0.2,0c-17.3,0-31.7,13-33.6,30.2c-2,18.5,11.4,35.3,29.9,37.3C57.3,88.3,58.5,88.4,59.7,88.4 M130.8,77.1c0.3,0,0.6,0,0.9,0h0.9
		l1.3,7.2c0.5,2.7,2.6,4.7,5.2,5.1c1.7,0.3,3.7,0.7,5.7,1.2c0.6,0.2,1.2,0.2,1.8,0.2c2,0,3.8-0.9,5-2.5l4.4-6c0.5,0.2,1,0.5,1.5,0.8
		l-1.9,7c-0.7,2.6,0.2,5.3,2.4,6.9c1.8,1.3,3.2,2.4,4.5,3.5c1.1,1.1,2.6,1.7,4.2,1.7c1,0,2.1-0.3,3.1-0.8l6.5-3.5
		c0.3,0.4,0.7,0.9,1,1.3l-4.8,5.6c-1.8,2-2.1,4.9-0.7,7.2c1,1.8,1.8,3.6,2.4,5.1c0.9,2.4,3.3,4,5.9,4c0.1,0,0.2,0,0.3,0l7.4-0.3
		c0.1,0.6,0.3,1.1,0.4,1.7l-6.8,2.9l0,0l0,0c-2.4,1.1-3.9,3.5-3.8,6.1c0,0.4,0,0.7,0.1,1.1c0,0.7,0.1,1.3,0.1,1.8
		c0,0.6,0,1.2-0.1,1.8c0,0.4,0,0.8-0.1,1.1c-0.1,2.6,1.4,5,3.8,6.1l0,0l0,0l6.8,2.9c-0.1,0.6-0.2,1.1-0.4,1.7l-7.4-0.3
		c-0.1,0-0.2,0-0.3,0c-2.6,0-4.9,1.6-5.9,3.9c-0.9,2.1-1.6,3.7-2.4,5.1c-1.3,2.3-1.1,5.3,0.7,7.3l4.8,5.6c-0.3,0.4-0.7,0.8-1,1.3
		l-6.6-3.5l-0.1,0l-0.1,0c-0.9-0.5-1.9-0.7-2.9-0.7c-1.5,0-3,0.6-4.2,1.6c-1.7,1.5-3.1,2.6-4.5,3.6l0,0l0,0
		c-2.1,1.5-3.1,4.2-2.4,6.8l2,7.1c-0.5,0.3-1,0.5-1.6,0.8l-4.4-5.9c-1.2-1.7-3-2.6-5.1-2.6c-0.6,0-1.2,0.1-1.8,0.3
		c-2.1,0.6-3.9,1-5.6,1.3l-0.1,0l-0.1,0c-2.6,0.5-4.6,2.5-5.1,5.1l-1.3,7.3c-0.3,0-0.6,0-0.9,0c-0.3,0-0.6,0-0.9,0l-1.3-7.2
		c-0.5-2.7-2.5-4.7-5.2-5.1c-1.7-0.3-3.7-0.7-5.7-1.2c-0.6-0.2-1.2-0.2-1.8-0.2c-2,0-3.8,0.9-5,2.6l-4.3,6c-0.5-0.2-1-0.5-1.6-0.8
		l1.9-7.1c0.7-2.6-0.2-5.2-2.4-6.8c-1.5-1.1-3-2.3-4.5-3.6c-1.1-1.1-2.6-1.6-4.2-1.6c-1.1,0-2.1,0.3-3,0.8l-6.5,3.5
		c-0.3-0.4-0.7-0.9-1-1.3l4.8-5.6c1.8-2,2.1-4.9,0.7-7.2c-0.9-1.7-1.8-3.4-2.5-5.1c-1-2.4-3.2-4-5.8-4c-0.1,0-0.2,0-0.3,0l-7.4,0.3
		c-0.1-0.6-0.3-1.1-0.4-1.7l6.8-2.9l0,0l0,0c2.4-1.1,3.9-3.5,3.8-6.1c0-0.9-0.1-2-0.1-3c0-1,0-2,0.1-3c0.1-2.6-1.4-5-3.8-6.1l0,0
		l0,0l-6.8-2.9c0.1-0.6,0.2-1.1,0.4-1.7l7.4,0.3c0.1,0,0.2,0,0.3,0c2.6,0,4.8-1.5,5.8-3.9c0.7-1.8,1.6-3.5,2.5-5.1
		c1.4-2.3,1.1-5.2-0.7-7.2l-4.8-5.6c0.3-0.4,0.7-0.8,1-1.3l6.5,3.5l0,0l0,0c0.9,0.5,1.9,0.7,2.9,0.7c1.5,0,3-0.6,4.2-1.6
		c1.7-1.5,3.1-2.6,4.5-3.6l0,0l0,0c2.1-1.6,3.1-4.2,2.4-6.7l-1.9-7.1c0.5-0.3,1-0.5,1.6-0.8l4.3,5.9c1.2,1.7,3,2.6,5.1,2.6
		c0.6,0,1.2-0.1,1.8-0.3c2.1-0.6,3.9-1,5.6-1.3l0.1,0l0.1,0c2.6-0.5,4.6-2.4,5.1-5L130.8,77.1 M131.7,174.9
		c22.2,0,40.3-18.1,40.3-40.3c0-22.2-18.1-40.3-40.3-40.3c-22.2,0-40.3,18.1-40.3,40.3C91.4,156.8,109.5,174.9,131.7,174.9
		 M63.2,4.1c-0.8,0-1.6,0.5-1.8,1.3l-2.1,6.9c-0.2,0.8-0.9,1.3-1.7,1.3c-1.7,0.1-3.4,0.2-5.1,0.5c-0.1,0-0.2,0-0.3,0
		c-0.7,0-1.3-0.3-1.7-1L46.9,7c-0.3-0.6-1-1-1.6-1c-0.2,0-0.4,0-0.6,0.1C43.4,6.5,42.2,7,41,7.5c-0.8,0.3-1.3,1.2-1.1,2.1l1.1,7.1
		c0.1,0.8-0.2,1.6-0.9,2c-1.5,0.8-3,1.7-4.3,2.7c-0.4,0.3-0.7,0.4-1.1,0.4c-0.3,0-0.7-0.1-1-0.3l-6-4.1c-0.3-0.2-0.7-0.3-1.1-0.3
		c-0.5,0-0.9,0.2-1.3,0.5c-1,0.9-1.9,1.8-2.8,2.7c-0.6,0.7-0.6,1.6-0.1,2.4l4.1,5.9c0.5,0.7,0.5,1.5,0,2.1c-1,1.4-1.9,2.9-2.7,4.4
		c-0.3,0.6-1,1-1.7,1c-0.1,0-0.2,0-0.3,0l-7.1-1.1c-0.1,0-0.2,0-0.3,0c-0.8,0-1.4,0.4-1.7,1.2c-0.5,1.2-0.9,2.5-1.3,3.7
		c-0.2,0.8,0.2,1.7,0.9,2.1l6.3,3.6c0.7,0.4,1.1,1.1,0.9,1.9c-0.1,0.8-0.3,1.7-0.4,2.5c-0.1,0.8-0.2,1.7-0.2,2.5
		c0,0.8-0.6,1.5-1.3,1.7l-6.9,2.1c-0.8,0.3-1.4,1-1.3,1.9c0.1,1.3,0.2,2.6,0.4,3.9c0.1,0.9,0.8,1.6,1.7,1.6l7.2,0.5
		c0.8,0.1,1.5,0.6,1.7,1.4c0.4,1.6,1,3.3,1.7,4.9c0.3,0.8,0.1,1.6-0.5,2.1l-5.3,4.9c-0.7,0.6-0.8,1.6-0.3,2.3
		c0.7,1.1,1.3,2.3,2.1,3.3c0.4,0.5,1,0.8,1.6,0.8c0.2,0,0.5,0,0.7-0.1l6.7-2.7c0.2-0.1,0.5-0.2,0.8-0.2c0.5,0,1,0.2,1.4,0.6
		c1.2,1.2,2.3,2.5,3.6,3.6c0.6,0.5,0.8,1.3,0.5,2.1l-2.7,6.7c-0.3,0.8-0.1,1.8,0.7,2.3c1.1,0.7,2.2,1.4,3.3,2.1
		c0.3,0.2,0.6,0.3,1,0.3c0.5,0,1-0.2,1.4-0.6l4.8-5.3c0.4-0.4,0.9-0.6,1.4-0.6c0.2,0,0.5,0,0.7,0.1c1.6,0.7,3.2,1.2,4.9,1.7
		c0.8,0.2,1.4,0.9,1.4,1.7l0.5,7.1c0,0.9,0.7,1.6,1.6,1.7c0.6,0.1,1.3,0.2,1.9,0.3c0.7,0.1,1.3,0.2,1.9,0.2c0,0,0.1,0,0.1,0
		c0.8,0,1.6-0.5,1.8-1.3l2.1-6.9c0.2-0.8,0.9-1.3,1.7-1.3c1.7-0.1,3.4-0.2,5.1-0.5c0.1,0,0.2,0,0.3,0c0.7,0,1.3,0.3,1.6,1l3.6,6.3
		c0.3,0.6,0.9,0.9,1.6,0.9c0.2,0,0.4,0,0.6-0.1c1.2-0.4,2.5-0.8,3.7-1.3c0.8-0.3,1.3-1.2,1.1-2.1l-1.1-7.1c-0.1-0.8,0.2-1.6,0.9-2
		c1.5-0.8,3-1.7,4.3-2.7c0.3-0.3,0.8-0.4,1.2-0.4c0.4,0,0.7,0.1,1,0.3l5.9,4.1c0.4,0.2,0.8,0.4,1.2,0.4c0.4,0,0.9-0.2,1.2-0.5
		c1-0.9,1.8-1.9,2.7-2.8c0.6-0.7,0.7-1.6,0.2-2.3l-4.1-5.9c-0.5-0.7-0.5-1.5,0-2.2c1-1.4,1.9-2.8,2.7-4.3c0.4-0.6,1-1,1.6-1
		c0.1,0,0.2,0,0.3,0l7.1,1.1c0.1,0,0.2,0,0.3,0c0.8,0,1.5-0.4,1.7-1.2c0.5-1.2,0.9-2.5,1.3-3.7c0.2-0.8-0.1-1.7-0.9-2.1l-6.3-3.6
		c-0.7-0.4-1.1-1.1-0.9-1.9c0.1-0.8,0.2-1.7,0.3-2.5c0.1-0.8,0.2-1.7,0.2-2.5c0-0.8,0.6-1.5,1.3-1.7l6.9-2.1c0.8-0.3,1.4-1,1.3-1.9
		c-0.1-1.3-0.3-2.6-0.5-3.9c-0.1-0.9-0.8-1.6-1.7-1.6l-7.2-0.5c-0.8-0.1-1.4-0.5-1.7-1.3c-0.4-1.6-1.1-3.3-1.7-4.9
		c-0.3-0.8-0.1-1.6,0.5-2.1l5.3-4.9c0.7-0.6,0.8-1.5,0.4-2.3c-0.7-1.1-1.4-2.3-2.1-3.3c-0.4-0.5-1-0.8-1.6-0.8c-0.2,0-0.5,0-0.7,0.1
		l-6.7,2.7C92.2,28,91.9,28,91.7,28c-0.5,0-1-0.2-1.3-0.6c-1.2-1.2-2.4-2.5-3.7-3.6c-0.6-0.5-0.8-1.4-0.5-2.1l2.7-6.7
		c0.3-0.8,0-1.8-0.7-2.3c-1.1-0.7-2.2-1.4-3.3-2.1c-0.3-0.2-0.6-0.3-1-0.3c-0.5,0-1,0.2-1.4,0.6l-4.9,5.3c-0.4,0.4-0.9,0.6-1.4,0.6
		c-0.2,0-0.5,0-0.7-0.1c-1.6-0.7-3.2-1.2-4.9-1.7c-0.8-0.2-1.3-0.9-1.3-1.7l-0.5-7.1c0-0.9-0.7-1.6-1.6-1.7
		c-0.6-0.1-1.3-0.2-1.9-0.3c-0.7-0.1-1.3-0.2-2-0.2C63.2,4.1,63.2,4.1,63.2,4.1L63.2,4.1z M59.7,84.4c-1.1,0-2.2-0.1-3.3-0.2
		c-16.4-1.8-28.2-16.6-26.4-32.9C31.8,36,44.7,24.7,59.7,24.7c0.1,0,0.1,0,0.2,0c1,0,2,0.1,3.1,0.2c16.4,1.8,28.2,16.6,26.4,32.9
		C87.7,73.1,74.8,84.4,59.7,84.4L59.7,84.4z M131.7,73.1L131.7,73.1c-0.5,0.1-1,0-1.6,0c-0.3,0-0.5,0-0.8,0c-1.1,0-2,0.8-2.2,1.9
		l-1.6,8.7c-0.2,0.9-0.9,1.6-1.9,1.8c-2.1,0.3-4.2,0.8-6.1,1.4c-0.2,0.1-0.4,0.1-0.6,0.1c-0.7,0-1.4-0.3-1.8-1l-5.1-7.1
		c-0.4-0.6-1.1-0.9-1.8-0.9c-0.3,0-0.7,0.1-1,0.2c-1.5,0.6-2.9,1.3-4.3,2.1c-1,0.5-1.4,1.5-1.1,2.6l2.3,8.5c0.3,1-0.1,1.9-0.9,2.5
		c-1.7,1.2-3.3,2.5-4.9,3.9c-0.5,0.4-1,0.6-1.5,0.6c-0.4,0-0.7-0.1-1.1-0.3l-7.7-4.1c-0.3-0.2-0.7-0.3-1.1-0.3
		c-0.6,0-1.3,0.3-1.7,0.8c-1,1.2-2,2.4-2.9,3.7c-0.6,0.8-0.6,2.1,0.1,2.9l5.7,6.7c0.7,0.8,0.8,1.8,0.3,2.6c-1,1.8-1.9,3.6-2.7,5.6
		c-0.3,0.9-1.2,1.4-2.1,1.4c0,0-0.1,0-0.1,0l-8.8-0.3c0,0-0.1,0-0.1,0c-1,0-2,0.6-2.2,1.7c-0.4,1.5-0.8,3.1-1.1,4.7
		c-0.2,1.1,0.4,2.1,1.3,2.5l8.1,3.5c0.9,0.4,1.4,1.3,1.4,2.3c0,1-0.1,2.1-0.1,3.1c0,1,0,2.1,0.1,3.1c0,1-0.5,1.9-1.4,2.3l-8.1,3.5
		c-1,0.4-1.5,1.5-1.3,2.5c0.3,1.6,0.7,3.1,1.1,4.6c0.3,1,1.2,1.7,2.2,1.7c0,0,0.1,0,0.1,0l8.8-0.4c0,0,0.1,0,0.1,0
		c0.9,0,1.8,0.6,2.1,1.5c0.8,1.9,1.7,3.8,2.7,5.6c0.5,0.8,0.4,1.8-0.3,2.6l-5.7,6.7c-0.7,0.8-0.8,1.9-0.1,2.8
		c0.9,1.2,1.9,2.5,2.9,3.7c0.5,0.5,1.1,0.8,1.7,0.8c0.4,0,0.7-0.1,1.1-0.3l7.7-4.1c0.4-0.2,0.8-0.3,1.2-0.3c0.5,0,1,0.2,1.4,0.6
		c1.5,1.4,3.2,2.7,4.9,3.9c0.8,0.6,1.1,1.5,0.9,2.5l-2.3,8.5c-0.3,1,0.2,2.1,1.1,2.6c1.4,0.7,2.8,1.4,4.3,2.1c0.3,0.1,0.6,0.2,1,0.2
		c0.7,0,1.4-0.3,1.8-0.9l5.1-7.1c0.4-0.6,1.1-0.9,1.8-0.9c0.2,0,0.5,0,0.7,0.1c2,0.6,4,1,6.1,1.3c0.9,0.1,1.7,0.9,1.9,1.9l1.6,8.6
		c0.2,1.1,1.1,1.8,2.2,1.9c0.8,0,1.5,0.1,2.3,0.1c0.8,0,1.6,0,2.4-0.1c1.1,0,2-0.8,2.1-1.9l1.6-8.6c0.2-1,0.9-1.7,1.9-1.9
		c2.1-0.3,4.2-0.8,6.1-1.4c0.2-0.1,0.4-0.1,0.6-0.1c0.7,0,1.4,0.3,1.8,1l5.2,7.1c0.4,0.6,1.1,0.9,1.8,0.9c0.3,0,0.6-0.1,0.9-0.2
		c1.5-0.6,2.9-1.3,4.3-2.1c1-0.5,1.5-1.6,1.2-2.6l-2.3-8.5c-0.3-1,0.1-1.9,0.9-2.5c1.7-1.2,3.3-2.5,4.9-3.9c0.5-0.4,1-0.6,1.5-0.6
		c0.4,0,0.7,0.1,1.1,0.3l7.8,4.1c0.3,0.2,0.7,0.3,1.1,0.3c0.6,0,1.3-0.3,1.7-0.8c1-1.2,2-2.4,2.9-3.7c0.6-0.8,0.6-2.1-0.1-2.9
		l-5.7-6.6c-0.7-0.8-0.8-1.8-0.3-2.7c1-1.8,1.9-3.6,2.7-5.6c0.3-0.9,1.2-1.4,2.2-1.4c0,0,0.1,0,0.1,0l8.7,0.3c0,0,0.1,0,0.1,0
		c1,0,2-0.6,2.2-1.7c0.4-1.5,0.8-3.1,1.1-4.7c0.2-1.1-0.4-2.1-1.3-2.5l-8.1-3.5c-0.9-0.4-1.4-1.3-1.4-2.3c0-1,0.1-2.1,0.1-3.1
		c0-1-0.1-2.1-0.1-3.1c0-1,0.5-1.9,1.4-2.3l8.1-3.5c1-0.4,1.5-1.5,1.3-2.5c-0.3-1.6-0.7-3.1-1.1-4.6c-0.3-1-1.2-1.7-2.2-1.7
		c0,0-0.1,0-0.1,0l-8.7,0.4c0,0-0.1,0-0.1,0c-0.9,0-1.8-0.6-2.2-1.5c-0.8-1.9-1.6-3.8-2.7-5.6c-0.5-0.8-0.4-1.8,0.3-2.6l5.7-6.7
		c0.7-0.8,0.8-1.9,0.1-2.8c-0.9-1.2-1.9-2.5-2.9-3.7c-0.5-0.5-1.1-0.8-1.7-0.8c-0.4,0-0.7,0.1-1.1,0.3l-7.8,4.1
		c-0.4,0.2-0.8,0.3-1.2,0.3c-0.5,0-1-0.2-1.4-0.6c-1.5-1.4-3.2-2.7-4.9-3.9c-0.8-0.6-1.1-1.6-0.9-2.5l2.3-8.5c0.3-1-0.2-2.1-1.2-2.6
		c-1.4-0.7-2.8-1.4-4.3-2.1c-0.3-0.1-0.6-0.2-0.9-0.2c-0.7,0-1.4,0.4-1.9,1l-5.2,7.1c-0.4,0.6-1.1,0.9-1.8,0.9c-0.2,0-0.5,0-0.7-0.1
		c-2-0.6-4-1-6.1-1.3c-0.9-0.1-1.7-0.9-1.9-1.9l-1.6-8.6c-0.2-1.1-1.1-1.8-2.1-1.9C133.3,73.1,132.5,73.1,131.7,73.1L131.7,73.1z
		 M131.7,170.9c-20,0-36.3-16.2-36.3-36.3c0-20,16.2-36.3,36.3-36.3c20,0,36.3,16.2,36.3,36.3C167.9,154.6,151.7,170.9,131.7,170.9
		L131.7,170.9z"/>
</g>
</svg>
