<?xml version="1.0" encoding="utf-8"?>
<!-- Generator: Adobe Illustrator 21.0.0, SVG Export Plug-In . SVG Version: 6.00 Build 0)  -->
<svg version="1.1"
	 id="Layer_1" xmlns:cc="http://creativecommons.org/ns#" xmlns:dc="http://purl.org/dc/elements/1.1/" xmlns:inkscape="http://www.inkscape.org/namespaces/inkscape" xmlns:rdf="http://www.w3.org/1999/02/22-rdf-syntax-ns#" xmlns:sodipodi="http://sodipodi.sourceforge.net/DTD/sodipodi-0.dtd" xmlns:svg="http://www.w3.org/2000/svg"
	 xmlns="http://www.w3.org/2000/svg" xmlns:xlink="http://www.w3.org/1999/xlink" x="0px" y="0px" viewBox="0 0 200 200"
	 style="enable-background:new 0 0 200 200;" xml:space="preserve">
<style type="text/css">
	.st0{fill:#FFFFFF;}
</style>
<g transform="translate(0,-1004.3622)">
	<path class="st0" d="M128.5,1039c-1.9,0-3.6,1.3-4,3.2l-3,13.2H6c-2.3,0-4.1,1.8-4.1,4.1v73.5c0,2.3,1.8,4.1,4.1,4.1h20.4
		c1.4,0,2.6-0.7,3.4-1.8l6.9-10.4h34.5v8.2c0,2.3,1.8,4.1,4.1,4.1h32.6c1.9,0,3.6-1.3,4-3.2l19.7-86.7h17.1c2.3,0,4.1-1.8,4.1-4
		c0-2.3-1.8-4.1-4-4.1h-0.1L128.5,1039L128.5,1039z M8.2,1061.5h114.5l-15.9,69.3H77.5v-8.2c0-2.3,0.2-4.1-2.1-4.1H34.6
		c-1.4,0-2.6,0.7-3.4,1.8l-6.9,10.4H8.2V1061.5z"/>
	<path class="st0" d="M140.8,1055.4c-1.9,0-3.6,1.3-4,3.2l-16.3,73.4c-0.5,2.2,0.9,4.4,3.1,4.9c0.3,0.1,0.6,0.1,0.9,0.1h12.3
		c1.4,0,2.6-0.7,3.4-1.8l7-10.4h30.5v7.5c-0.2,1.3,0.2,2.6,1.1,3.5l0.1,0.1c0.9,0.9,2.2,1.3,3.5,1.1H194c2.3,0,4.1-1.8,4.1-4.1
		v-73.4c0-2.3-1.8-4.1-4.1-4.1L140.8,1055.4L140.8,1055.4z M144.1,1061.5h47.7v69.3h-8.1v-8.2c0-2.3,0.2-4.1-2.1-4.1h-36.7
		c-1.4,0-2.6,0.7-3.4,1.8l-6,9.4h-9l15.5-68.3L144.1,1061.5z"/>
	<path class="st0" d="M51,1128.9c-11.2,0-20.4,9.2-20.4,20.4s9.2,20.4,20.4,20.4s20.4-9.2,20.4-20.4S62.2,1128.9,51,1128.9z
		 M51,1137c6.8,0,12.3,5.4,12.3,12.3s-5.4,12.3-12.3,12.3s-12.3-5.4-12.3-12.3S44.2,1137,51,1137z"/>
	<path class="st0" d="M161.3,1128.9c-11.2,0-20.4,9.2-20.4,20.4s9.2,20.4,20.4,20.4s20.4-9.2,20.4-20.4S172.5,1128.9,161.3,1128.9z
		 M161.3,1137c6.8,0,12.3,5.4,12.3,12.3s-5.4,12.3-12.3,12.3c-6.9,0-12.3-5.5-12.3-12.3S154.4,1137,161.3,1137z"/>
	<path class="st0" d="M153.1,1067.6c-2,0-3.7,1.4-4,3.4l-4.1,24.5c-0.4,2.2,1.1,4.3,3.3,4.7c0.2,0,0.5,0.1,0.7,0.1h32.7
		c2.3,0,4.1-1.8,4.1-4.1v-24.5c0-2.3-1.8-4.1-4.1-4.1H153.1z M156.5,1075.8h21v16.3h-23.7L156.5,1075.8z"/>
</g>
</svg>
