<?xml version="1.0" encoding="utf-8"?>
<!-- Generator: Adobe Illustrator 21.0.0, SVG Export Plug-In . SVG Version: 6.00 Build 0)  -->
<svg version="1.1" id="Layer_1" xmlns="http://www.w3.org/2000/svg" xmlns:xlink="http://www.w3.org/1999/xlink" x="0px" y="0px"
	 viewBox="0 0 100 100" style="enable-background:new 0 0 100 100;" xml:space="preserve">
<style type="text/css">
	.st0{fill:#FFFFFF;}
	.st1{fill:#444444;}
</style>
<g>
	<g>
		<path class="st0" d="M11,86.3l8.6-13.8c0.8-1.3,1-3.1,1-3.3v-0.1V32.8C20.7,16.7,33.8,3.5,50,3.5S79.3,16.7,79.3,33v36.1
			c0,1.4,0.3,2.6,1,3.5L89,86.3H11z"/>
		<path class="st1" d="M50,5c15.3,0,27.8,12.6,27.8,28v36.1c0,1.7,0.4,3.1,1.3,4.3l7.1,11.4H13.8L21,73.3c0.9-1.5,1.2-3.4,1.2-4
			c0-0.1,0-0.2,0-0.2V32.8C22.2,17.5,34.7,5,50,5 M50,2C32.9,2,19.2,15.9,19.2,32.8V69c0,0-0.1,1.6-0.8,2.6L8.3,87.8h83.3l-10-16.1
			C81,71,80.8,70,80.8,69.1V33C80.8,15.9,66.9,2,50,2L50,2z"/>
	</g>
	<g>
		<path class="st1" d="M59.9,87.1c0,5.5-4.4,9.9-9.9,9.9s-9.9-4.4-9.9-9.9"/>
	</g>
</g>
</svg>
