<?xml version="1.0" encoding="utf-8"?>
<!-- Generator: Adobe Illustrator 21.0.0, SVG Export Plug-In . SVG Version: 6.00 Build 0)  -->
<svg version="1.1" id="Layer_1" xmlns="http://www.w3.org/2000/svg" xmlns:xlink="http://www.w3.org/1999/xlink" x="0px" y="0px"
	 viewBox="0 0 100 100" style="enable-background:new 0 0 100 100;" xml:space="preserve">
<style type="text/css">
	.st0{fill:#FFFFFF;stroke:#444444;stroke-width:2.5;stroke-miterlimit:10;}
	.st1{fill:#444444;}
</style>
<g>
	<path class="st0" d="M70.7,67.5H16.1C8.4,67.5,2,58.3,2,43.2C2,27,8.4,18.8,16.1,18.8h54.6c7.8,0,14.1,8.5,14.1,24.7
		C84.9,59.3,78.5,67.5,70.7,67.5z"/>
	<path class="st0" d="M77.3,74.3H22.7c-7.8,0-14.1-9.2-14.1-24.3c0-16.2,6.4-24.3,14.1-24.3h54.6c7.8,0,14.1,8.5,14.1,24.7
		C91.4,66.1,85.1,74.3,77.3,74.3z"/>
	<path class="st0" d="M83.9,81.2H29.3c-7.8,0-14.1-9.2-14.1-24.3c0-16.2,6.4-24.3,14.1-24.3h54.6C91.6,32.5,98,41,98,57.1
		C98,72.9,91.6,81.2,83.9,81.2z"/>
	<path class="st1" d="M67.3,59.7L48.9,70.2c-0.7,0.4-1.4,0.6-2.1,0.6c-1.7,0-2.9-1.4-2.9-3.5v-21c0-2.1,1.1-3.5,2.9-3.5
		c0.7,0,1.4,0.2,2.1,0.6L67.3,54c1.3,0.7,2,1.7,2,2.9S68.5,59,67.3,59.7z"/>
</g>
</svg>
