<?xml version="1.0" encoding="utf-8"?>
<!-- Generator: Adobe Illustrator 19.0.0, SVG Export Plug-In . SVG Version: 6.00 Build 0)  -->
<svg version="1.1" id="Layer_1" xmlns="http://www.w3.org/2000/svg" xmlns:xlink="http://www.w3.org/1999/xlink" x="0px" y="0px"
	 viewBox="-75 77 48 48" style="enable-background:new -75 77 48 48;" xml:space="preserve">
<style type="text/css">
	.st0{fill:none;stroke:#444444;stroke-width:2;stroke-miterlimit:10;}
	.st1{fill:#444444;}
</style>
<g id="XMLID_2_">
	<g id="XMLID_31_">
		<path id="XMLID_34_" class="st0" d="M-67,100c0-8.8,7.2-16,16-16c8.3,0,15.1,6.3,15.9,14.3"/>
		<g id="XMLID_32_">
			<path id="XMLID_33_" class="st1" d="M-44.5,91.3c0.2-0.3,0.7-0.4,1-0.1l8.3,6.8l2.6-10.4c0.1-0.3,0.5-0.6,0.9-0.5
				c0.3,0.1,0.6,0.5,0.5,0.9l-2.9,11.5c0,0.2-0.3,0.4-0.5,0.4c-0.2,0.1-0.5,0-0.7-0.1l-9.1-7.5c-0.1-0.1-0.1-0.2-0.2-0.4
				C-44.7,91.7-44.7,91.5-44.5,91.3z"/>
		</g>
	</g>
</g>
<g id="XMLID_3_">
	<g id="XMLID_26_">
		<path id="XMLID_29_" class="st0" d="M-35,102c0,8.8-7.2,16-16,16c-8.3,0-15.1-6.3-15.9-14.3"/>
		<g id="XMLID_27_">
			<path id="XMLID_28_" class="st1" d="M-57.7,110.3c-0.2,0.3-0.7,0.4-1,0.1l-8.3-6.7l-2.6,10.4c-0.1,0.3-0.5,0.6-0.9,0.5
				c-0.3-0.1-0.6-0.5-0.5-0.9l2.9-11.5c0-0.3,0.3-0.5,0.5-0.5c0.2-0.1,0.5,0,0.7,0.1l9.1,7.5c0.1,0.1,0.1,0.2,0.2,0.4
				C-57.5,109.9-57.6,110.1-57.7,110.3z"/>
		</g>
	</g>
</g>
</svg>
