<?xml version="1.0" encoding="utf-8"?>
<!-- Generator: Adobe Illustrator 19.0.0, SVG Export Plug-In . SVG Version: 6.00 Build 0)  -->
<svg version="1.1" id="Layer_1" xmlns="http://www.w3.org/2000/svg" xmlns:xlink="http://www.w3.org/1999/xlink" x="0px" y="0px"
	 viewBox="0 0 200 200" style="enable-background:new 0 0 200 200;" xml:space="preserve">
<style type="text/css">
	.st0{fill:#454545;}
</style>
<g>
	<polygon id="XMLID_17_" class="st0" points="28,140.8 28,133.7 172,133.7 172,140.8 	"/>
</g>
<g>
	<path class="st0" d="M7.6,161.3c-1.4,0-2.7-0.9-3.3-2.2l0,0c-0.5-1.3-0.2-2.9,0.8-3.9l0,0l19.4-19.4V42.3c0-0.9,0.4-1.9,1-2.5l0,0
		c0.7-0.7,1.6-1,2.5-1l0,0h144c0.9,0,1.9,0.4,2.5,1l0,0c0.7,0.7,1,1.6,1,2.5l0,0v8.5v85l19.4,19.4c1,1,1.3,2.5,0.8,3.9l0,0
		c-0.6,1.3-1.8,2.2-3.3,2.2l0,0H7.6L7.6,161.3z M31.6,137.3c0,0.9-0.4,1.9-1,2.5l0,0l-14.4,14.4h167.7l-14.4-14.4
		c-0.7-0.7-1-1.6-1-2.5l0,0V50.8v-5H31.6V137.3L31.6,137.3z"/>
</g>
<g>
	<path id="XMLID_2_" class="st0" d="M77.4,150.2c-0.7,0-1.2-0.5-1.2-1.2l0,0c0-0.7,0.5-1.2,1.2-1.2l0,0h46.4c0.6,0,1.2,0.5,1.2,1.2
		l0,0c0,0.7-0.5,1.2-1.2,1.2l0,0H77.4L77.4,150.2z"/>
</g>
</svg>
