<?xml version="1.0" encoding="utf-8"?>
<!-- Generator: Adobe Illustrator 19.0.0, SVG Export Plug-In . SVG Version: 6.00 Build 0)  -->
<svg version="1.1" id="Layer_1" xmlns="http://www.w3.org/2000/svg" xmlns:xlink="http://www.w3.org/1999/xlink" x="0px" y="0px"
	 viewBox="0 0 200 200" style="enable-background:new 0 0 200 200;" xml:space="preserve">
<style type="text/css">
	.st0{fill:#454545;}
</style>
<path class="st0" d="M195.3,97.3c-18.8-35.6-55.3-57.8-95.3-57.8S23.4,61.7,4.7,97.3c-0.9,1.7-0.9,3.6,0,5.3
	c18.7,35.6,55.3,57.8,95.3,57.8s76.6-22.1,95.3-57.8C196.2,101,196.2,99,195.3,97.3z M100,149c-34.8,0-66.7-18.7-83.8-49
	c17.2-30.3,49-49.1,83.8-49.1s66.7,18.7,83.8,49.1C166.7,130.3,134.8,149,100,149z"/>
<path id="XMLID_1_" class="st0" d="M103.6,66.1c-4.3-0.6-8.4-0.3-12.2,0.6c-1.2,0.3-1.9,1.6-1.4,2.7c1.4,3,2,6.5,1.4,10.1
	c-1.1,7.3-6.9,13.3-14.2,14.6c-3.4,0.6-6.6,0.3-9.4-0.8c-1.1-0.4-2.4,0.3-2.6,1.5c-0.7,4.8-0.5,9.9,1.2,15.2
	c4.5,13.7,17,23.6,31.4,24.1c21.1,0.7,38.1-17.7,35-39.3C130.6,80,118.5,68.1,103.6,66.1z"/>
</svg>
