<?xml version="1.0" encoding="utf-8"?>
<!-- Generator: Adobe Illustrator 19.0.0, SVG Export Plug-In . SVG Version: 6.00 Build 0)  -->
<svg version="1.1" id="Layer_1" xmlns="http://www.w3.org/2000/svg" xmlns:xlink="http://www.w3.org/1999/xlink" x="0px" y="0px"
	 viewBox="0 0 200 200" style="enable-background:new 0 0 200 200;" xml:space="preserve">
<style type="text/css">
	.st0{fill:#454545;}
</style>
<g id="XMLID_1_">
	<path id="XMLID_10_" class="st0" d="M100,100V4C47,4,4,47,4,100s43,96,96,96c27.5,0,52.3-11.6,69.8-30.1"/>
</g>
<g>
	<path class="st0" d="M100,8c50.7,0,92,41.3,92,92s-41.3,92-92,92S8,150.7,8,100S49.3,8,100,8 M100,4C47,4,4,47,4,100s43,96,96,96
		s96-43,96-96S153,4,100,4L100,4z"/>
</g>
</svg>
