<?xml version="1.0" encoding="utf-8"?>
<!-- Generator: Adobe Illustrator 19.0.0, SVG Export Plug-In . SVG Version: 6.00 Build 0)  -->
<svg version="1.1" id="Layer_1" xmlns="http://www.w3.org/2000/svg" xmlns:xlink="http://www.w3.org/1999/xlink" x="0px" y="0px"
	 viewBox="0 0 200 200" style="enable-background:new 0 0 200 200;" xml:space="preserve">
<style type="text/css">
	.st0{fill:#FCBF74;}
	.st1{fill:#454545;}
</style>
<g id="XMLID_96_">
	<path class="st0" d="M100,191c-50.1-0.1-90.9-40.9-91-91C9,49.8,49.8,9,100,9s91,40.8,91,91C191,150.2,150.2,191,100,191L100,191z"
		/>
	<path class="st1" d="M100,13c23.3,0,45.1,9,61.5,25.5C178,54.9,187,76.7,187,100s-9,45.1-25.5,61.5C145.1,178,123.3,187,100,187
		c-23.2,0-45-9.1-61.5-25.5S13,123.2,13,100c0-23.3,9-45.1,25.5-61.5C54.9,22,76.7,13,100,13 M100,5C47.5,5,5,47.5,5,100
		c0.1,52.4,42.6,94.9,95,95c52.5,0,95-42.5,95-95S152.5,5,100,5L100,5z"/>
</g>
<path id="XMLID_86_" class="st1" d="M108.8,147c0,5.5-4.4,9.9-9.9,9.9S89,152.5,89,147s4.4-9.9,9.9-9.9
	C104.3,137.1,108.8,141.6,108.8,147C108.8,147.1,108.8,147.1,108.8,147L108.8,147z"/>
<path id="XMLID_85_" class="st1" d="M67.9,69.7c-0.9-2.5-0.7-5.2,0.4-7.5C73.9,50.5,85.6,43.1,98.5,43h0.2
	c18.3,0.1,33.3,14.6,34,32.9c0.5,14.8-8.9,28.2-22.9,32.9c0,0-1,0.3-1,0.9v7.9c0,5.5-4.4,9.9-9.9,9.9s-9.9-4.4-9.9-9.9v-7.9
	c0.1-8.9,5.9-16.8,14.4-19.6c5.9-2,9.7-7.6,9.5-13.8c-0.4-7.6-6.6-13.5-14.2-13.6c-5.4,0.1-10.3,3.2-12.6,8c-2.3,4.9-8.2,7-13.1,4.7
	C70.6,74.4,68.8,72.3,67.9,69.7z"/>
</svg>
