<?xml version="1.0" encoding="utf-8"?>
<!-- Generator: Adobe Illustrator 19.0.0, SVG Export Plug-In . SVG Version: 6.00 Build 0)  -->
<svg version="1.1" id="Layer_1" xmlns="http://www.w3.org/2000/svg" xmlns:xlink="http://www.w3.org/1999/xlink" x="0px" y="0px"
	 viewBox="0 0 200 200" style="enable-background:new 0 0 200 200;" xml:space="preserve">
<style type="text/css">
	.st0{fill:#B8EDFF;stroke:#444444;stroke-width:3;stroke-miterlimit:10;}
	.st1{fill:#444444;}
	.st2{fill:none;stroke:#444444;stroke-width:3;stroke-miterlimit:10;}
	.st3{fill:#FFFFFF;stroke:#444444;stroke-width:3;stroke-miterlimit:10;}
</style>
<rect x="50" y="43.2" class="st0" width="99.3" height="115.7"/>
<path class="st1" d="M44.4,174V26c0-12.2,9.9-22,22-22l0,0l67.2,0c12.2,0,22,9.9,22,22l0,0v148c0,12.2-9.9,22-22,22l0,0l-67.2,0
	C54.3,196,44.4,186.1,44.4,174L44.4,174z M50.6,26v148c0,8.7,7.1,15.8,15.8,15.8l0,0h67.2c8.7,0,15.8-7.1,15.8-15.8l0,0h0l0-148
	c0-8.7-7.1-15.8-15.8-15.8l0,0H66.4C57.7,10.2,50.7,17.3,50.6,26L50.6,26z"/>
<line class="st2" x1="100" y1="65.8" x2="128.2" y2="93.6"/>
<line class="st2" x1="100" y1="65.8" x2="75" y2="119.2"/>
<g>
	<path class="st1" d="M45,43.2V26c0-11.8,9.6-21.4,21.4-21.4l0,0h67.2c11.8,0,21.4,9.6,21.4,21.4l0,0v14.7v2.5L45,43.2L45,43.2z
		 M152.5,40.7v-2.5V40.7L152.5,40.7z M50,26v12.2h100V26c0-9.1-7.3-16.4-16.4-16.4l0,0H66.4C57.4,9.6,50,17,50,26L50,26z"/>
</g>
<g>
	<path class="st1" d="M45,174v-12.6v-2.5H155V174c0,11.8-9.6,21.4-21.4,21.4l0,0l-67.2,0C54.6,195.4,45,185.8,45,174L45,174z
		 M50,174c0,9.1,7.3,16.4,16.4,16.4l0,0h67.2c9.1,0,16.4-7.3,16.4-16.4l0,0v-10.1H50V174L50,174z M47.5,163.9v-2.5V163.9L47.5,163.9
		z"/>
</g>
<g>
	<polygon class="st1" points="81.8,28.5 81.8,23.5 118.5,23.5 118.5,28.5 	"/>
</g>
<g>
	<circle class="st1" cx="100" cy="176.7" r="8"/>
</g>
<circle class="st3" cx="100" cy="65.8" r="9"/>
<circle class="st3" cx="75" cy="119.2" r="9"/>
<circle class="st3" cx="128.2" cy="93.6" r="9"/>
</svg>
