<?xml version="1.0" encoding="utf-8"?>
<!-- Generator: Adobe Illustrator 19.0.0, SVG Export Plug-In . SVG Version: 6.00 Build 0)  -->
<svg version="1.1" id="Layer_1" xmlns="http://www.w3.org/2000/svg" xmlns:xlink="http://www.w3.org/1999/xlink" x="0px" y="0px"
	 viewBox="0 0 200 200" style="enable-background:new 0 0 200 200;" xml:space="preserve">
<style type="text/css">
	.st0{fill:#FFD960;stroke:#444444;stroke-width:8;stroke-miterlimit:10;}
	.st1{fill:#454545;}
</style>
<path id="XMLID_21_" class="st0" d="M100,140.3c-6,0-12.1-0.8-18-2.4h-0.1c-29-8.1-49.3-34.8-49.3-64.9c0-37.2,30.2-67.4,67.4-67.4
	c18,0,34.9,7,47.6,19.8c12.7,12.7,19.8,29.7,19.8,47.6c0,30-20.2,56.7-49.2,64.9h-0.1H118h-0.1h-0.1C112,139.5,106,140.3,100,140.3z
	"/>
<path id="XMLID_106_" class="st1" d="M120.7,145.7c-0.9-0.6-2-0.7-2.9-0.3l-35.5,14.3v-11.2c0-1.7-1.4-3.1-3.1-3.1s-3.1,1.4-3.1,3.1
	v15.8v0.1v8.5c0,12.7,10.3,23,23.1,23s23.1-10.3,23.1-23v-24.6C122.1,147.3,121.5,146.3,120.7,145.7z M86.3,183.9
	c-1.2-1.4-2.2-3-2.9-4.7l32.3-12.8v5.8L86.3,183.9z M82.2,166.5l33.5-13.5v6.7L82.2,173l0,0V166.5z M99,189.7
	c-2.4,0-4.6-0.5-6.7-1.4l22.1-8.8C111.9,185.5,105.9,189.7,99,189.7z"/>
<path id="XMLID_92_" class="st1" d="M128.6,57.9l-12.5,9v-5c0-1.9-1.1-3.6-2.7-4.4c-1.7-0.8-3.7-0.7-5.2,0.4l-11.9,8.8V62
	c0-1.9-1.1-3.6-2.8-4.5c-1.7-0.8-3.8-0.6-5.2,0.6L68.8,73.8c-2.1,1.7-2.5,4.8-0.8,7c1,1.2,2.4,1.8,3.9,1.8c1.1,0,2.2-0.4,3.1-1.1
	l11.5-9.2v4.3c0,1.9,1.1,3.6,2.7,4.4c1.7,0.8,3.7,0.7,5.2-0.4l11.9-8.8v4.8c0,1.9,1,3.6,2.7,4.4s3.6,0.7,5.2-0.4L134.4,66
	c2.2-1.6,2.7-4.7,1.1-6.9C133.9,56.9,130.9,56.3,128.6,57.9z"/>
</svg>
