<?xml version="1.0" encoding="utf-8"?>
<!-- Generator: Adobe Illustrator 19.0.0, SVG Export Plug-In . SVG Version: 6.00 Build 0)  -->
<svg version="1.1" id="Layer_1" xmlns="http://www.w3.org/2000/svg" xmlns:xlink="http://www.w3.org/1999/xlink" x="0px" y="0px"
	 viewBox="0 0 200 200" style="enable-background:new 0 0 200 200;" xml:space="preserve">
<style type="text/css">
	.st0{fill:#B6EA94;}
	.st1{fill:#444444;}
</style>
<rect x="16.7" y="33.3" class="st0" width="165" height="115"/>
<path class="st1" d="M100,4c-1.2,0-2.2,1.1-2.2,2.2v11.1H6.4c-1.5,0-2.2,1.3-2.2,2.2V33c0,1.2,1.1,2.2,2.2,2.2h8.9v111.5
	c0,2.4,2,4.5,4.5,4.5h78v10.3L69.4,192c-1,0.7-1.2,2.1-0.5,3.1c0.7,1,2.1,1.2,3.1,0.5c0.2-0.2,0.4-0.4,0.5-0.6l25.2-27.1v21.2
	c0,1.2,1.1,2.2,2.2,2.2s2.2-1.1,2.2-2.2v-21.2l25.2,27.1c0.7,1,2,1.3,3.1,0.7c1-0.7,1.3-2,0.7-3.1c-0.1-0.2-0.3-0.4-0.5-0.6
	l-28.4-30.5v-10.3h78c2.4,0,4.5-2,4.5-4.5V35.2h8.9c1.2,0,2.2-1.1,2.2-2.2V19.6c0-1.2-1.1-2.2-2.2-2.2h-91.4V6.2
	C102.3,5.1,101.2,4,100,4L100,4z M8.6,21.8h182.8v8.9H8.6C8.6,30.8,8.6,21.8,8.6,21.8z M19.7,35.2h160.5v111.5H19.7
	C19.7,146.7,19.7,35.2,19.7,35.2z M108.6,57.5c-0.9,0.1-1.7,0.7-1.9,1.6l-17.8,62.4c-0.3,1.1,0.5,2.5,1.6,2.8
	c1.1,0.3,2.4-0.5,2.7-1.6l17.8-62.4C111.5,58.9,110.1,57.3,108.6,57.5z M75.5,66.4c-0.4,0-0.8,0.1-1.2,0.3L38.6,89
	c-1.4,0.8-1.4,2.9,0,3.8l35.7,22.3c1,0.6,2.5,0.3,3.1-0.7c0.6-1,0.2-2.5-0.8-3.1L44.1,91l32.6-20.4c0.9-0.5,1.4-1.6,1.1-2.6
	C77.5,67,76.5,66.3,75.5,66.4z M124.5,66.4c-1,0-1.9,0.7-2.2,1.7c-0.3,1,0.2,2,1,2.5L155.9,91l-32.6,20.3c-1,0.6-1.3,2.1-0.7,3.1
	c0.6,1,2.1,1.3,3.1,0.7l35.7-22.3c1.4-0.9,1.3-3,0-3.8l-35.7-22.3C125.3,66.5,124.9,66.3,124.5,66.4z"/>
</svg>
