<?xml version="1.0" encoding="utf-8"?>
<!-- Generator: Adobe Illustrator 19.0.0, SVG Export Plug-In . SVG Version: 6.00 Build 0)  -->
<svg version="1.1" id="Layer_1" xmlns="http://www.w3.org/2000/svg" xmlns:xlink="http://www.w3.org/1999/xlink" x="0px" y="0px"
	 viewBox="0 0 200 200" style="enable-background:new 0 0 200 200;" xml:space="preserve">
<style type="text/css">
	.st0{fill:#9FDCF4;}
	.st1{fill:#454545;}
</style>
<polygon id="XMLID_80_" class="st0" points="181.7,73.7 86.4,148.1 86.4,126.1 18.3,70.9 18.3,12.4 181.7,12.4 "/>
<g id="XMLID_79_">
	<g id="XMLID_93_">
		<circle id="XMLID_78_" class="st1" cx="114" cy="104.9" r="6.4"/>
	</g>
	<g id="XMLID_91_">
		<path id="XMLID_77_" class="st1" d="M125.9,100.6c-0.9,0-1.7-0.3-2.3-1.2c-0.9-1.2-0.6-3.2,0.6-4.1l34.9-25.9
			c1.2-0.9,3.2-0.6,4.1,0.6c0.9,1.2,0.6,3.2-0.6,4.1L127.6,100C127.1,100.3,126.5,100.6,125.9,100.6z"/>
	</g>
	<g id="XMLID_82_">
		<path id="XMLID_84_" class="st1" d="M85.5,196c-0.9,0-1.7-0.3-2.6-0.6c-2-0.9-3.2-2.9-3.2-5.2v-61.4L12.1,78.5
			c-1.5-1.2-2.3-2.9-2.3-4.7v-64c0-3.2,2.6-5.8,5.8-5.8h168.7c3.2,0,5.8,2.6,5.8,5.8v64c0,1.7-0.9,3.5-2.3,4.7l-67.5,50.3v41
			c0,2-0.9,3.8-2.6,4.7l-29.1,20.4C87.8,195.7,86.6,196,85.5,196z M18.3,70.9l67.5,53.5c1.5,1.2,2.3,2.9,2.3,4.7v50l23.9-12.2v-37.8
			c0-1.7,0.9-3.5,2.3-4.7l67.5-53.5V12.4H18.3V70.9z"/>
	</g>
</g>
</svg>
