<?xml version="1.0" encoding="utf-8"?>
<!-- Generator: Adobe Illustrator 19.0.0, SVG Export Plug-In . SVG Version: 6.00 Build 0)  -->
<svg version="1.1" id="Layer_1" xmlns="http://www.w3.org/2000/svg" xmlns:xlink="http://www.w3.org/1999/xlink" x="0px" y="0px"
	 viewBox="0 0 200 200" style="enable-background:new 0 0 200 200;" xml:space="preserve">
<style type="text/css">
	.st0{fill-rule:evenodd;clip-rule:evenodd;fill:#444444;}
</style>
<path id="XMLID_1_" class="st0" d="M150.8,82c-0.7,8.5-1.3,16.9-2,25.4c-0.7,9.4-1.4,18.9-2.1,28.3c-0.8,10.6-0.4,21.3,1,31.8
	c0.5,4.1-0.7,5.8-5.2,6.7c0,3.2,0,6.5,0,9.9c-28.2,0-56.3,0-84.6,0c0-3.3,0-6.6,0-9.9c-4.7-0.8-5.8-2.5-5.2-7.2
	c1.5-12,1.6-23.9,0.6-36c-0.8-9.6-1.4-19.1-2.1-28.7c-0.5-6.8-1.2-13.5-1.8-20.7c-0.8,0.9-1.6,1.6-2.1,2.3c-3.5,4.8-5.4,10.4-7.1,16
	c-3.3,11.3-5.3,22.8-6.7,34.5c-0.7,6-1,12-1.7,17.9c-0.2,1.9-1.1,3.8-2.2,5.3c-1.8,2.7-3,5.4-2.5,8.7c0.2,1.6,0.1,3.3,0,4.9
	c0,0.5-0.7,1.3-1.1,1.3c-5.6,0.1-11.2,0.1-17.1,0.1c0-3.4,0.1-6.6,0-9.8c0-1-0.4-2.2-0.9-3c-2.4-3.6-3.4-7.6-3.6-11.8
	c-1-23.8,1.5-47,10.5-69.3c6.5-16,15.6-30.1,28.9-41.2c0.8-0.7,1.7-1.3,2.5-1.9c4.4-3.8,9.3-5.8,15.2-5.1c2.3,0.3,4.8-0.2,7.2-0.7
	c4-0.8,5.8-3.2,6.5-7.6c0.2-1.1,0.4-2.3,0.8-3.9c3,3.5,6.3,5.9,10.4,6.8c4,0.8,8.1,1.1,12.3,1.7c0,48.7,0,97.8,0,147
	c1.1,0,2,0,3.1,0c0-49.1,0-98.2,0-147.5c8.5,0.3,16.5-0.7,22.7-7.9c0.3,1.3,0.7,2.4,0.8,3.4c0.8,5.5,3.3,8.1,8.9,8.4
	c3.4,0.2,6.9,0.1,10.4,0.4c1.4,0.1,3,0.6,4.2,1.3c9.6,5.9,17.3,13.8,23.8,22.9c10.6,15,17,31.7,20.5,49.7c2.9,14.9,3.8,29.9,2.8,45
	c-0.3,3.8-1.4,7.3-3.5,10.4c-0.5,0.7-0.7,1.7-0.8,2.5c-0.1,3.3,0,6.6,0,10.1c-6.1,0-12.1,0-18.3,0c0-2.9,0.1-5.8,0-8.6
	c-0.1-1.3-0.3-2.8-1.1-3.8c-3.2-4-3.6-8.6-4-13.4c-1.3-16.7-3.7-33.2-8.7-49.2c-1.3-4.1-3.2-7.9-5.1-11.8c-0.7-1.5-2-2.7-3-4
	C151.1,81.8,151,81.9,150.8,82z"/>
</svg>
