<?xml version="1.0" encoding="utf-8"?>
<!-- Generator: Adobe Illustrator 19.0.0, SVG Export Plug-In . SVG Version: 6.00 Build 0)  -->
<svg version="1.1" id="Layer_1" xmlns="http://www.w3.org/2000/svg" xmlns:xlink="http://www.w3.org/1999/xlink" x="0px" y="0px"
	 viewBox="0 0 200 200" style="enable-background:new 0 0 200 200;" xml:space="preserve">
<style type="text/css">
	.st0{fill-rule:evenodd;clip-rule:evenodd;fill:#FFFFFF;}
	.st1{fill-rule:evenodd;clip-rule:evenodd;fill:#3F3F3F;}
</style>
<g>
	<path class="st0" d="M194.5,158.4c3.2-5.9,2.6-15.8-6.4-21.5c3.7-5.9,3.3-11.4-1.1-15.3c-3.9-3.4-9.6-3.6-13.6-0.3
		c-5.3,4.4-5,11-1.5,15.7c-0.8,0.6-1.6,1.3-2.5,1.8c-0.5,0.3-1.2,0.4-1.8,0.4c-2.4,0-4.8,0-7.2,0c-0.6,0-1.2,0-1.7-0.3
		c-0.9-0.6-1.7-1.3-2.6-2c3.6-5.9,3.3-11.4-1-15.2c-3.7-3.4-9.3-3.7-13.3-0.7c-2.1,1.6-3.5,3.7-4.1,6.3c-0.9,3.6,0.2,6.8,2.3,9.7
		c-0.8,0.6-1.5,1-2.1,1.6c-0.8,0.8-1.6,0.8-2.7,0.6c-2.1-0.3-4.3-0.1-6.4,0c-0.6,0-1.3,0.2-1.7,0c-1-0.6-1.9-1.4-2.8-2.2
		c3.6-5.7,3.2-11.3-0.9-15.1c-3.8-3.5-9.6-3.7-13.6-0.6c-2.1,1.6-3.4,3.8-4,6.4c-0.8,3.5,0.4,6.5,2.4,9.3c-0.8,0.6-1.6,1.3-2.4,1.8
		c-0.6,0.3-1.3,0.5-2,0.5c-2.4,0.1-4.8,0.1-7.2,0c-0.5,0-1.1,0-1.5-0.2c-1-0.6-1.8-1.4-2.7-2.1c3.7-5.9,3.2-11.5-1.1-15.4
		c-3.9-3.4-9.7-3.5-13.6-0.2c-4.6,3.7-5.1,9.3-1.4,15.6c-1.7,1.7-3.4,3.1-6.2,1.9c-1-0.4-2.5-0.4-3.4,0c-2.5,1.2-4.1-0.1-5.8-1.5
		c-0.1-0.1-0.3-0.3-0.4-0.4c3.7-6.1,3.2-11.6-1.2-15.4c-3.9-3.3-9.6-3.4-13.6,0c-4.5,3.7-5,9.4-1.3,15.4c-2.7,2.4-2.7,2.4-5.9,1.9
		c-1.2-0.2-2.6-0.4-3.6,0c-2.4,1.1-4.1,0-5.8-1.5c-0.1-0.1-0.3-0.2-0.4-0.4c3.7-6.3,3.2-11.6-1.2-15.4c-3.8-3.3-9.5-3.4-13.5-0.2
		c-2,1.6-3.4,3.7-3.8,6.3c-0.6,3.4,0.2,6.6,2.4,9.3c-9.4,6.1-9.5,17-6.2,21.5c1.6-0.8,3.3-1.6,4.9-2.4c-1.8-6.7-0.1-11.4,4.7-13.9
		c3.9-2,8.9-1.3,11.5,1.8c-2.4,4.5-1.9,8.7,1.1,12.7c-7.9,6.1-10.6,15.4-6.3,21.5c1.6-0.8,3.3-1.6,4.9-2.4
		c-1.6-6.3-0.5-10.4,3.5-13.2c3.4-2.4,8.1-2.5,11.6-0.1c4.1,2.8,5.2,6.9,3.7,13.3c1.7,0.8,3.3,1.7,5.1,2.5c0.5-1.3,1-2.4,1.4-3.7
		c0.5,1.3,1,2.4,1.5,3.7c1.8-0.9,3.5-1.8,5.1-2.6c-1.5-6.5-0.4-10.5,3.6-13.2c3.3-2.3,7.9-2.5,11.2-0.2c4.9,3.3,5.8,8,3.9,13.5
		c1.7,0.9,3.3,1.7,5.2,2.6c0.5-1.2,0.9-2.3,1.4-3.7c0.5,1.4,1,2.5,1.4,3.7c1.9-0.9,3.5-1.8,5.1-2.5c-1.5-6.5-0.4-10.4,3.6-13.3
		c3.3-2.4,8-2.5,11.4-0.2c4.8,3.3,5.7,7.9,3.8,13.4c1.7,0.9,3.4,1.7,5.2,2.6c0.5-1.3,0.9-2.4,1.4-3.7c0.5,1.3,1,2.4,1.5,3.6
		c1.8-0.9,3.5-1.7,5.2-2.6c-1.7-5.8-0.6-10.1,3.2-13c3.3-2.5,8-2.8,11.4-0.5c5,3.3,6,8,4.1,13.5c1.7,0.9,3.4,1.7,5.2,2.6
		c0.5-1.3,1-2.5,1.4-3.7c0.5,1.2,0.9,2.4,1.5,3.7c1.8-0.9,3.5-1.8,5.2-2.6c-1.8-5.6-0.7-10,3.1-12.9c3.4-2.6,8.2-3,11.7-0.5
		c1.6,1.2,3.1,3,4,4.8c1.4,2.7,1,5.7-0.1,8.6c1.8,0.9,3.4,1.7,5,2.5c4.2-6.5,1.6-15.1-6.3-21.6c2.8-3.7,3.4-7.7,1.5-12.1
		c-0.2-0.4,0.3-1.4,0.8-1.7c5.6-3.9,13.8-1.1,15.4,5.6c0.6,2.4,0.1,5,0.1,7.9C191.1,156.7,192.7,157.5,194.5,158.4z M179,103.5
		c3.4-6.8,0.8-15.2-5.3-19.8c-0.5-0.4-1-0.7-1.5-1.1c5.7-7.1,1.5-17.9-9-18c0-0.6,0-1.1,0-1.6c0-10.1,0-20.3,0-30.4
		c0-5.8-4-10-9.7-10c-35.5,0-71,0-106.5,0c-5.5,0-9.7,4.1-9.7,9.6c0,22.9,0,45.7,0,68.6c0,2.8,1.1,5.1,3.1,7c2.2,2,4.8,2.5,7.7,2.5
		c34.2,0,68.3,0,102.5,0c1.5,0,2.4,0.4,3.1,1.8"/>
	<path class="st1" d="M194.5,158.4c-1.7-0.9-3.4-1.7-4.6-2.3c0-2.9,0.5-5.5-0.1-7.9c-1.7-6.7-9.8-9.6-15.4-5.6
		c-0.5,0.3-1,1.3-0.8,1.7c2,4.4,1.3,8.4-1.5,12.1c7.9,6.5,10.4,15.1,6.3,21.6c-1.6-0.8-3.3-1.7-5-2.5c1.2-2.9,1.6-5.9,0.1-8.6
		c-1-1.8-2.4-3.6-4-4.8c-3.4-2.5-8.3-2.1-11.7,0.5c-3.7,2.9-4.8,7.3-3.1,12.9c-1.7,0.8-3.4,1.7-5.2,2.6c-0.5-1.3-1-2.5-1.5-3.7
		c-0.5,1.2-0.9,2.4-1.4,3.7c-1.8-0.9-3.4-1.7-5.2-2.6c2-5.6,0.9-10.2-4.1-13.5c-3.4-2.3-8.1-1.9-11.4,0.5c-3.9,2.9-5,7.2-3.2,13
		c-1.7,0.8-3.3,1.7-5.2,2.6c-0.5-1.3-0.9-2.3-1.5-3.6c-0.5,1.3-0.9,2.3-1.4,3.7c-1.8-0.9-3.5-1.7-5.2-2.6c1.9-5.5,1-10-3.8-13.4
		c-3.4-2.4-8.1-2.2-11.4,0.2c-4,2.8-5.1,6.8-3.6,13.3c-1.6,0.8-3.2,1.6-5.1,2.5c-0.5-1.2-0.9-2.3-1.4-3.7c-0.5,1.3-1,2.4-1.4,3.7
		c-1.8-0.9-3.5-1.7-5.2-2.6c1.8-5.5,1-10.1-3.9-13.5c-3.4-2.3-7.9-2.1-11.2,0.2c-4,2.8-5.1,6.8-3.6,13.2c-1.6,0.8-3.2,1.6-5.1,2.6
		c-0.5-1.2-0.9-2.4-1.5-3.7c-0.5,1.2-0.9,2.3-1.4,3.7c-1.8-0.9-3.5-1.7-5.1-2.5c1.6-6.4,0.4-10.6-3.7-13.3
		c-3.4-2.3-8.1-2.3-11.6,0.1c-4,2.8-5.1,6.9-3.5,13.2c-1.6,0.8-3.3,1.6-4.9,2.4c-4.3-6.1-1.6-15.4,6.3-21.5c-3-4-3.5-8.3-1.1-12.7
		c-2.6-3.1-7.5-3.8-11.5-1.8c-4.9,2.5-6.5,7.3-4.7,13.9c-1.6,0.8-3.2,1.6-4.9,2.4c-3.3-4.5-3.2-15.4,6.2-21.5
		c-2.2-2.7-3-5.9-2.4-9.3c0.5-2.5,1.8-4.7,3.8-6.3c4-3.2,9.6-3.1,13.5,0.2c4.5,3.9,4.9,9.1,1.2,15.4c0.1,0.1,0.3,0.2,0.4,0.4
		c1.7,1.5,3.3,2.5,5.8,1.5c1-0.4,2.4-0.2,3.6,0c3.2,0.5,3.2,0.5,5.9-1.9c-3.6-6.1-3.1-11.7,1.3-15.4c4-3.3,9.8-3.3,13.6,0
		c4.5,3.9,4.9,9.4,1.2,15.4c0.1,0.1,0.3,0.3,0.4,0.4c1.7,1.4,3.3,2.7,5.8,1.5c0.9-0.4,2.4-0.4,3.4,0c2.7,1.2,4.4-0.2,6.2-1.9
		c-3.6-6.2-3.1-11.8,1.4-15.6c4-3.3,9.8-3.2,13.6,0.2c4.4,3.8,4.8,9.5,1.1,15.4c0.9,0.7,1.7,1.5,2.7,2.1c0.4,0.3,1,0.2,1.5,0.2
		c2.4,0,4.8,0,7.2,0c0.7,0,1.4-0.2,2-0.5c0.8-0.5,1.6-1.1,2.4-1.8c-2-2.8-3.2-5.8-2.4-9.3c0.6-2.6,1.9-4.8,4-6.4
		c4-3.2,9.8-2.9,13.6,0.6c4.2,3.8,4.5,9.4,0.9,15.1c0.9,0.7,1.8,1.6,2.8,2.2c0.4,0.3,1.2,0,1.7,0c2.1,0,4.3-0.2,6.4,0
		c1.1,0.2,1.9,0.2,2.7-0.6c0.6-0.6,1.3-1,2.1-1.6c-2.1-2.9-3.2-6-2.3-9.7c0.6-2.6,2-4.7,4.1-6.3c4-3,9.6-2.6,13.3,0.7
		c4.2,3.8,4.6,9.3,1,15.2c0.9,0.7,1.7,1.4,2.6,2c0.5,0.3,1.1,0.3,1.7,0.3c2.4,0,4.8,0,7.2,0c0.6,0,1.3-0.1,1.8-0.4
		c0.9-0.5,1.7-1.2,2.5-1.8c-3.6-4.6-3.8-11.3,1.5-15.7c4-3.3,9.7-3.1,13.6,0.3c4.4,3.9,4.8,9.4,1.1,15.3
		C197,142.6,197.6,152.5,194.5,158.4z M108.2,156.5c4,2.5,6.6,6,8,11.1c1.4-5.1,3.9-8.6,8-11.1c-3.1-4.1-3.4-8.4-1.2-12.9
		c-3.6-3.4-10-3.4-13.6,0C111.7,148.1,111.3,152.4,108.2,156.5z M84.3,166.9c1.4-4.5,4.1-8,8-10.5c-3.2-4.2-3.4-8.5-1.2-12.9
		c-3.9-3.4-10.2-3.3-13.6,0.1c2.3,4.4,1.9,8.7-1.2,12.8C80.3,159,82.9,162.4,84.3,166.9z M44.4,156.5c4.2,2.5,6.6,6.2,8.1,11.1
		c1.3-5.1,3.9-8.6,7.9-11.1c-3.2-4.1-3.5-8.5-1.1-12.9c-3.5-2.9-8.8-3.3-12.4-0.9c-0.5,0.3-1,1.3-0.8,1.7
		C47.8,148.6,47.2,152.6,44.4,156.5z M154.8,143.5c-3.7-3.3-9.9-3.3-13.5,0.2c2.5,4.5,1.9,8.8-1.1,12.8c4.2,2.5,6.7,6.1,8,11.2
		c1.2-5.1,3.9-8.7,7.9-11.2C153,151.7,152.9,150.3,154.8,143.5z M68.2,154c2.6,0,4.8-2.1,4.8-4.7c0-2.6-2.2-4.9-4.8-4.8
		c-2.5,0-4.6,2.1-4.7,4.7C63.5,151.8,65.6,154,68.2,154z M100.1,154c2.6,0,4.8-2.1,4.8-4.7c0-2.6-2.2-4.9-4.7-4.9
		c-2.5,0-4.6,2.1-4.7,4.7C95.4,151.7,97.5,154,100.1,154z M180,134.4c2.6,0,4.8-2.2,4.8-4.8c0-2.6-2.2-4.8-4.8-4.7
		c-2.5,0.1-4.6,2.2-4.7,4.7C175.3,132.2,177.4,134.4,180,134.4z M168.7,149.2c0-2.7-2.2-4.8-4.8-4.8c-2.6,0.1-4.6,2.3-4.6,5
		c0.1,2.6,2.1,4.6,4.7,4.6C166.7,154,168.8,151.9,168.7,149.2z M88.9,129.6c0-2.7-2.1-4.8-4.7-4.8c-2.6,0-4.6,2.1-4.6,4.7
		c0,2.7,2,4.8,4.6,4.8C86.9,134.4,88.9,132.4,88.9,129.6z M20.5,124.9c-2.6,0-4.8,2.2-4.8,4.8c0,2.5,2.1,4.7,4.6,4.7
		c2.7,0.1,4.8-2,4.9-4.6C25.2,127.1,23.1,124.9,20.5,124.9z M120.9,129.6c-0.1-2.7-2.2-4.8-4.8-4.7c-2.7,0.1-4.6,2.2-4.5,5
		c0.1,2.6,2.1,4.6,4.7,4.5C118.9,134.4,121,132.2,120.9,129.6z M148.2,124.9c-2.6,0-4.8,2.1-4.8,4.7c0,2.6,2,4.7,4.5,4.8
		c2.6,0.1,4.8-2,4.9-4.6C153,127.2,150.8,124.9,148.2,124.9z M52.4,134.4c2.7,0,4.6-2.1,4.6-4.9c-0.1-2.6-2.1-4.6-4.7-4.6
		c-2.6,0-4.7,2.1-4.7,4.8C47.6,132.3,49.8,134.4,52.4,134.4z M41.1,149.3c0-2.6-2.1-4.8-4.7-4.9c-2.6,0-4.7,2.2-4.7,4.9
		c0,2.6,2,4.7,4.6,4.7C38.9,154.1,41.1,151.9,41.1,149.3z M136.8,149.3c0-2.7-2.1-4.8-4.7-4.8c-2.6,0-4.7,2.3-4.7,4.9
		c0,2.5,2.1,4.7,4.7,4.7C134.8,154.1,136.8,152,136.8,149.3z"/>
	<path class="st1" d="M155.1,110.1c-0.8,0-3,0-4.5,0c-34.2,0-68.3,0-102.5,0c-2.9,0-5.5-0.5-7.7-2.5c-2-1.9-3.1-4.2-3.1-7
		c0-22.9,0-45.7,0-68.6c0-5.5,4.2-9.6,9.7-9.6c35.5,0,71,0,106.5,0c5.6,0,9.7,4.1,9.7,10c0,10.1,0,20.3,0,30.4c0,0.5,0,1,0,1.6
		c10.5,0.2,14.7,10.9,9,18c0.5,0.4,1,0.7,1.5,1.1c6.2,4.5,8.6,13.7,5.2,20.5l-3.9,6 M149.4,104.1c-3.2-9-1-16.1,6.6-21.5
		c-0.1-0.2-0.2-0.4-0.3-0.7c-3.2-5.1-2.9-9.3,0.9-14.1c0.4-0.5,0.6-1.4,0.6-2.1c0-5.6,0-11.2,0-16.8c0-1.3,0-2.5,0-3.8
		c-38.1,0-75.9,0-113.9,0c0,0.8,0,1.4,0,2.1c0,17.4,0,34.8,0,52.2c0,3.7,1,4.8,4.8,4.8c33.1,0,66.1,0,99.2,0
		C148,104.1,148.6,104.1,149.4,104.1z M43.3,38.8c38,0,75.8,0,113.9,0c0-1.9,0-3.7,0-5.5c0-4.1-0.9-4.9-5-4.9c-34.7,0-69.4,0-104,0
		c-0.6,0-1.3,0-1.9,0c-1.7,0.2-2.8,1.2-2.9,2.8C43.2,33.8,43.3,36.2,43.3,38.8z M173.7,100.6c2-4.2,0.3-9.4-3.5-12.2
		c-3.7-2.7-8.7-2.6-12.3,0.2c-3.6,2.8-5.1,8-3.1,12.1 M168.8,75.3c0-2.7-2.2-4.8-4.8-4.8c-2.5,0.1-4.6,2.2-4.6,4.7
		c0,2.6,2.1,4.9,4.7,4.9C166.7,80.2,168.8,78,168.8,75.3z"/>
	<path id="XMLID_19_" class="st0" d="M108.2,156.5c3.1-4.1,3.5-8.4,1.2-12.8c3.6-3.4,10-3.5,13.6,0c-2.2,4.4-2,8.7,1.2,12.9
		c-4,2.5-6.6,6-8,11.1C114.8,162.5,112.3,159,108.2,156.5z"/>
	<path id="XMLID_18_" class="st0" d="M84.3,166.9c-1.4-4.5-4-8-8-10.4c3.1-4.1,3.5-8.3,1.2-12.8c3.4-3.4,9.7-3.5,13.6-0.1
		c-2.2,4.4-2,8.7,1.2,12.9C88.3,159,85.6,162.4,84.3,166.9z"/>
	<path id="XMLID_17_" class="st0" d="M44.4,156.5c2.9-3.9,3.4-7.9,1.5-12.2c-0.2-0.4,0.4-1.4,0.8-1.7c3.7-2.4,8.9-2,12.4,0.9
		c-2.3,4.5-2,8.8,1.1,12.9c-4,2.5-6.7,6-7.9,11.1C51,162.7,48.5,159,44.4,156.5z"/>
	<path id="XMLID_16_" class="st0" d="M154.8,143.5c-1.9,6.8-1.8,8.2,1.2,13c-4,2.5-6.6,6-7.9,11.2c-1.3-5-3.8-8.6-8-11.2
		c3-4.1,3.6-8.4,1.1-12.8C144.9,140.2,151.1,140.2,154.8,143.5z"/>
	<path id="XMLID_15_" class="st0" d="M68.2,154c-2.6,0-4.7-2.3-4.6-4.9c0.1-2.5,2.2-4.7,4.7-4.7c2.5,0,4.8,2.3,4.8,4.8
		C73,151.9,70.8,154.1,68.2,154z"/>
	<path id="XMLID_14_" class="st0" d="M100.1,154c-2.6,0-4.8-2.3-4.7-4.9c0.1-2.5,2.3-4.7,4.7-4.7c2.5,0,4.8,2.3,4.7,4.9
		C104.9,152,102.8,154.1,100.1,154z"/>
	<path id="XMLID_13_" class="st0" d="M180,134.4c-2.6,0-4.8-2.2-4.7-4.8c0-2.5,2.1-4.7,4.7-4.7c2.6,0,4.8,2.1,4.8,4.7
		C184.8,132.2,182.7,134.4,180,134.4z"/>
	<path id="XMLID_12_" class="st0" d="M168.7,149.2c0,2.7-2,4.8-4.7,4.8c-2.5,0-4.6-2.1-4.7-4.6c-0.1-2.7,2-4.9,4.6-5
		C166.6,144.4,168.7,146.6,168.7,149.2z"/>
	<path id="XMLID_11_" class="st0" d="M88.9,129.6c0,2.7-2,4.8-4.7,4.7c-2.7,0-4.7-2.1-4.6-4.8c0-2.6,2-4.6,4.6-4.7
		C86.9,124.9,88.9,126.9,88.9,129.6z"/>
	<path id="XMLID_10_" class="st0" d="M20.5,124.9c2.6,0,4.7,2.3,4.7,4.9c-0.1,2.7-2.2,4.7-4.9,4.6c-2.5-0.1-4.6-2.2-4.6-4.7
		C15.7,127,17.9,124.9,20.5,124.9z"/>
	<path id="XMLID_9_" class="st0" d="M120.9,129.6c0,2.7-2,4.8-4.7,4.8c-2.6,0-4.6-1.9-4.7-4.5c-0.1-2.7,1.9-4.9,4.5-5
		C118.7,124.8,120.8,126.9,120.9,129.6z"/>
	<path id="XMLID_8_" class="st0" d="M148.2,124.9c2.6,0,4.8,2.3,4.7,4.9c-0.1,2.6-2.3,4.7-4.9,4.6c-2.6-0.1-4.5-2.1-4.5-4.8
		C143.4,127,145.6,124.8,148.2,124.9z"/>
	<path id="XMLID_7_" class="st0" d="M52.4,134.4c-2.6,0-4.8-2-4.8-4.7c0-2.7,2.1-4.8,4.7-4.8c2.6,0,4.6,2,4.7,4.6
		C57,132.3,55.1,134.4,52.4,134.4z"/>
	<path id="XMLID_6_" class="st0" d="M41.1,149.3c0,2.6-2.2,4.8-4.8,4.7c-2.6,0-4.6-2.1-4.6-4.7c0-2.7,2.1-4.9,4.7-4.9
		C39,144.5,41.1,146.7,41.1,149.3z"/>
	<path id="XMLID_5_" class="st0" d="M136.8,149.3c0,2.7-2.1,4.8-4.7,4.8c-2.5,0-4.6-2.1-4.7-4.7c0-2.6,2.1-4.9,4.7-4.9
		C134.7,144.4,136.8,146.6,136.8,149.3z"/>
	<path id="XMLID_4_" class="st0" d="M149.4,104.3c-0.9,0-1.5,0-2.1,0c-33.1,0-66.1,0-99.2,0c-3.8,0-4.8-1-4.8-4.8
		c0-17.4,0-34.8,0-52.2c0-0.6,0-1.3,0-2.1c38,0,75.8,0,113.9,0c0,1.3,0,2.5,0,3.8c0,5.6,0,11.2,0,16.8c0,0.7-0.2,1.6-0.6,2.1
		c-3.8,4.8-4.1,9-0.9,14.1c0.1,0.2,0.2,0.4,0.3,0.7C148.5,88.2,146.2,95.3,149.4,104.3z"/>
	<path id="XMLID_3_" class="st0" d="M43.3,39c0-2.6-0.1-5.1,0-7.5c0.1-1.7,1.2-2.6,2.9-2.8c0.6-0.1,1.3,0,1.9,0c34.7,0,69.4,0,104,0
		c4.1,0,5,0.8,5,4.9c0,1.8,0,3.6,0,5.5C119.2,39,81.3,39,43.3,39z"/>
	<path id="XMLID_2_" class="st0" d="M154.7,101c-2-4.1-0.5-9.3,3.1-12.1c3.6-2.8,8.7-2.9,12.3-0.2c3.8,2.8,5.4,8.7,3.4,12.9"/>
	<path id="XMLID_1_" class="st0" d="M168.8,75.5c0,2.7-2.1,4.9-4.7,4.9c-2.6,0-4.7-2.3-4.7-4.9c0-2.5,2.1-4.7,4.6-4.7
		C166.7,70.7,168.8,72.8,168.8,75.5z"/>
</g>
</svg>
