<?xml version="1.0" encoding="utf-8"?>
<!-- Generator: Adobe Illustrator 19.0.0, SVG Export Plug-In . SVG Version: 6.00 Build 0)  -->
<svg version="1.1" id="Layer_1" xmlns="http://www.w3.org/2000/svg" xmlns:xlink="http://www.w3.org/1999/xlink" x="0px" y="0px"
	 viewBox="0 0 200 200" style="enable-background:new 0 0 200 200;" xml:space="preserve">
<style type="text/css">
	.st0{fill-rule:evenodd;clip-rule:evenodd;fill:#A5A5A5;}
	.st1{fill-rule:evenodd;clip-rule:evenodd;fill:#FFFFFF;}
	.st2{fill-rule:evenodd;clip-rule:evenodd;fill:#333333;}
</style>
<g>
	<path class="st0" d="M96.3,20.8c1.3,0.8,2,2.2,2.4,4c0.3,1.5,0.7,3,1.2,4.4c0.1,0.3,0.5,0.6,0.7,0.7c0.6,0.1,1.3,0.1,1.9,0
		c1.4-0.1,2.4,0.7,3,2.2c2.4,5.4,4.8,10.8,7.1,16.2c1.3,2.9-0.1,5.8-2.8,5.8c-2.9,0-5.8,0-8.7,0c-0.3,2.4-0.7,4.9-1,7.3
		c-0.9,6.7-1.8,13.4-2.7,20.1c-0.1,0.9-0.1,1.4,0.6,1.9c1.5,1,2.2,2.8,1.9,4.9c-1.9,13.9-3.7,27.8-5.6,41.7
		c-0.7,5.3-1.4,10.7-2.1,16c-0.4,2.9-1.9,4.6-4.2,5.1c-0.4,2.8-0.8,5.7-1.2,8.5c-0.5,3.3-0.9,6.6-1.4,9.9c-0.3,1.8-1.1,2.6-2.6,2.6
		c-16.2,0-32.5,0-48.7,0c-1.5,0-2.3-0.8-2.6-2.6c-0.8-5.7-1.6-11.5-2.4-17.2c-0.1-0.4-0.1-0.8-0.2-1.2c-2.3-0.5-3.8-2.2-4.2-5.1
		c-1.3-9.2-2.5-18.4-3.7-27.6c-1.3-9.7-2.5-19.4-3.9-29c-0.4-2.9,0-5,2.2-6.4c0.2-0.1,0.3-0.6,0.3-0.9c-1.2-9.2-2.5-18.5-3.8-27.7
		c0-0.1,0-0.2-0.1-0.4c-2.9,0-5.9,0-8.9,0c-1.4,0-2.6-0.9-2.9-2.6c-0.2-1-0.1-2.3,0.2-3.1c2.4-5.6,4.8-11,7.3-16.5
		c0.6-1.4,1.5-2,2.8-2c0.9,0,1.9,0.3,2.5-0.2c0.6-0.5,0.6-1.9,0.9-2.9c0.2-0.7,0.4-1.4,0.6-2.1c0.3-1.7,1-3,2.3-3.9
		C45.9,20.8,71.1,20.8,96.3,20.8z M24.8,83.3c1.7,0.2,3.3,0.4,4.9,0.6c4.5,0.5,9.1,1.1,13.6,1.6c4.5,0.5,9,1.4,13.6,1.6
		c3.4,0.2,6.8-0.4,10.2-0.7c6.9-0.8,13.7-1.6,20.6-2.5c1.5-0.2,3-0.4,4.6-0.6c1.3-9.7,2.6-19.4,3.9-29.1c-25.2,0-50.2,0-75.3,0
		C22.2,63.9,23.5,73.6,24.8,83.3z M93.2,28.4c-0.3,0-0.5,0-0.7,0c-22.6,0-45.2,0-67.8,0c-0.9,0-1.1,0.5-1.1,1.5c2.8,0,5.5,0,8.3,0
		c1.9,0,3.1,1.5,3.1,3.7c0,2.4-1.2,3.8-3.1,3.8c-5,0-9.9,0-14.9,0c-0.4,0-0.9,0.1-1,0.4c-1.3,2.8-2.5,5.7-3.8,8.6
		c31,0,61.8,0,92.8,0c-0.9-2-1.9-3.8-2.5-5.8c-0.8-2.6-2.1-3.7-4.4-3.3c-1.6,0.3-2.6-0.8-3.1-2.8C94.3,32.5,93.8,30.5,93.2,28.4z
		 M36,166.1c15.1,0,30,0,45,0c0.7-5,1.4-10,2-15c-16.4,0-32.7,0-49.1,0C34.6,156.1,35.3,161.1,36,166.1z"/>
	<path class="st1" d="M24.8,83.3c-1.3-9.7-2.6-19.4-3.9-29.1c25.1,0,50.1,0,75.3,0c-1.3,9.7-2.6,19.3-3.9,29.1
		c-1.5,0.2-3.1,0.4-4.6,0.6c-6.9,0.8-13.7,1.7-20.6,2.5c-3.4,0.4-6.8,0.9-10.2,0.7c-4.5-0.2-9.1-1-13.6-1.6
		c-4.5-0.5-9.1-1.1-13.6-1.6C28.1,83.7,26.5,83.5,24.8,83.3z"/>
	<path class="st1" d="M93.2,28.4c0.6,2.1,1.1,4.1,1.7,6.2c0.5,2,1.5,3.1,3.1,2.8c2.3-0.4,3.6,0.7,4.4,3.3c0.6,2,1.6,3.8,2.5,5.8
		c-31,0-61.8,0-92.8,0c1.3-2.9,2.5-5.8,3.8-8.6c0.1-0.3,0.7-0.4,1-0.4c5,0,9.9,0,14.9,0c1.9,0,3.2-1.5,3.1-3.8
		c0-2.3-1.2-3.7-3.1-3.7c-2.7,0-5.5,0-8.3,0c0-1,0.2-1.5,1.1-1.5c22.6,0,45.2,0,67.8,0C92.7,28.3,92.9,28.4,93.2,28.4z"/>
	<path class="st1" d="M36,166.1c-0.7-5-1.3-10-2-15c16.4,0,32.7,0,49.1,0c-0.7,5-1.4,10-2,15C66,166.1,51.1,166.1,36,166.1z"/>
</g>
<g>
	<path class="st2" d="M52.6,164.1c0.2,0,0.5,0,0.7,0c47.3,0,94.5,0,141.8,0c0.2,0,0.5,0,0.9,0c-0.2,1.2-0.2,2.4-0.5,3.6
		c-1.4,6-4.9,9.8-10.9,11.3c-1,0.2-2,0.3-3,0.3c-17,0-34,0-51,0c-21.2,0-42.3,0-63.5,0c-6.7,0-12.2-4.3-13.9-10.7
		c-0.2-0.9-0.4-1.9-0.6-2.8C52.6,165.2,52.6,164.6,52.6,164.1z"/>
	<path class="st2" d="M165.7,142.4c0,1.5,0,3,0,4.4c-0.1,5.4-2.5,9.6-7.2,12.3c-1.8,1-3.9,1.5-6,1.5c-18.6,0-37.3,0-55.9,0
		c-6,0-11.7-4.6-13.1-10.5c-0.2-1-0.4-2-0.4-3.1c0-18.5,0-37.1,0-55.6c0-0.1,0-0.3,0-0.5c0.2,0,0.4,0,0.5,0c28.4,0,56.8,0,85.2,0
		c5.8,0,10.9,2.2,15.2,6c4.8,4.2,7.7,9.5,8.6,15.8c1.2,8.6-1.3,16-7.6,22.1c-4.4,4.3-9.9,6.7-16,7.3
		C168,142.2,166.9,142.3,165.7,142.4z M165.8,131.7c1.6-0.1,3.2-0.1,4.8-0.4c3.6-0.6,6.6-2.2,9-5c2.8-3.4,3.8-7.3,3.3-11.6
		c-0.4-3.6-1.8-6.7-4.3-9.3c-2.7-2.8-6.1-4-9.9-4c-0.9,0-1.8,0-2.8,0C165.8,111.5,165.8,121.5,165.8,131.7z"/>
	<path class="st1" d="M165.8,131.7c0-10.2,0-20.2,0-30.3c0.9,0,1.8,0,2.8,0c3.9,0,7.2,1.2,9.9,4c2.5,2.6,3.9,5.8,4.3,9.3
		c0.5,4.3-0.5,8.2-3.3,11.6c-2.3,2.8-5.4,4.4-9,5C169,131.6,167.4,131.6,165.8,131.7z"/>
</g>
</svg>
