<?xml version="1.0" encoding="utf-8"?>
<!-- Generator: Adobe Illustrator 19.0.0, SVG Export Plug-In . SVG Version: 6.00 Build 0)  -->
<svg version="1.1" id="Layer_1" xmlns="http://www.w3.org/2000/svg" xmlns:xlink="http://www.w3.org/1999/xlink" x="0px" y="0px"
	 viewBox="0 0 200 200" style="enable-background:new 0 0 200 200;" xml:space="preserve">
<style type="text/css">
	.st0{opacity:0.7;}
	.st1{fill:#010101;}
</style>
<g class="st0">
	<g>
		<g>
			
				<rect id="XMLID_29_" x="82.5" y="150.5" transform="matrix(0.966 0.2586 -0.2586 0.966 47.1604 -15.7958)" class="st1" width="2.2" height="41.7"/>
		</g>
		<g>
			
				<rect id="XMLID_28_" x="121.3" y="4.8" transform="matrix(0.9661 0.2583 -0.2583 0.9661 11.0025 -30.7272)" class="st1" width="2.2" height="43.5"/>
		</g>
		<g>
			
				<rect id="XMLID_27_" x="71.3" y="144.9" transform="matrix(0.8658 0.5003 -0.5003 0.8658 85.8688 -15.8215)" class="st1" width="2.2" height="14.6"/>
		</g>
		<g>
			
				<rect id="XMLID_26_" x="132" y="40.5" transform="matrix(0.8658 0.5004 -0.5004 0.8658 41.4437 -60.2864)" class="st1" width="2.2" height="13.3"/>
		</g>
		<g>
			
				<rect id="XMLID_25_" x="47.8" y="130.7" transform="matrix(0.7067 0.7075 -0.7075 0.7067 122.8918 10.4239)" class="st1" width="2.2" height="45.5"/>
		</g>
		<g>
			
				<rect id="XMLID_24_" x="156.3" y="21.5" transform="matrix(0.7071 0.7071 -0.7071 0.7071 77.85 -98.163)" class="st1" width="2.2" height="46.7"/>
		</g>
		<g>
			
				<rect id="XMLID_23_" x="43.6" y="119.5" transform="matrix(0.5 0.866 -0.866 0.5 137.525 27.7634)" class="st1" width="2.2" height="27"/>
		</g>
		<g>
			
				<rect id="XMLID_22_" x="160.1" y="52.2" transform="matrix(0.4996 0.8662 -0.8662 0.4996 137.6023 -106.7168)" class="st1" width="2.2" height="27.1"/>
		</g>
		<g>
			
				<rect id="XMLID_21_" x="31.4" y="99.1" transform="matrix(0.2598 0.9656 -0.9656 0.2598 138.2721 56.0627)" class="st1" width="2.2" height="38.3"/>
		</g>
		<g>
			
				<rect id="XMLID_20_" x="174.1" y="58.8" transform="matrix(0.2598 0.9656 -0.9656 0.2598 206.9654 -110.0296)" class="st1" width="2.2" height="42.4"/>
		</g>
		<g>
			<rect id="XMLID_19_" x="4" y="97.8" class="st1" width="44.7" height="2.2"/>
		</g>
		<g>
			<rect id="XMLID_18_" x="156.1" y="97.8" class="st1" width="13.4" height="2.2"/>
		</g>
		<g>
			
				<rect id="XMLID_17_" x="35.3" y="82.3" transform="matrix(0.9659 0.2589 -0.2589 0.9659 23.0692 -8.3768)" class="st1" width="16" height="2.2"/>
		</g>
		<g>
			
				<rect id="XMLID_16_" x="154.2" y="116.6" transform="matrix(0.9659 0.2588 -0.2588 0.9659 36.3059 -40.3423)" class="st1" width="34.3" height="2.2"/>
		</g>
		<g>
			
				<rect id="XMLID_15_" x="18.4" y="61.2" transform="matrix(0.866 0.5 -0.5 0.866 36.3716 -11.0451)" class="st1" width="40.7" height="2.2"/>
		</g>
		<g>
			
				<rect id="XMLID_11_" x="146.1" y="137.8" transform="matrix(0.866 0.5 -0.5 0.866 92.3861 -67.0646)" class="st1" width="50.6" height="2.2"/>
		</g>
		<g>
			
				<rect id="XMLID_10_" x="55.6" y="56.4" transform="matrix(0.7071 0.7071 -0.7071 0.7071 58.5824 -26.3515)" class="st1" width="10.9" height="2.2"/>
		</g>
		<g>
			
				<rect id="XMLID_9_" x="136" y="148.1" transform="matrix(0.7071 0.7071 -0.7071 0.7071 150.2497 -64.3237)" class="st1" width="33.6" height="2.2"/>
		</g>
		<g>
			
				<rect id="XMLID_7_" x="45.9" y="34.3" transform="matrix(0.5 0.866 -0.866 0.5 63.7157 -39.4567)" class="st1" width="40.2" height="2.2"/>
		</g>
		<g>
			
				<rect id="XMLID_6_" x="123.7" y="155.2" transform="matrix(0.5 0.866 -0.866 0.5 203.3336 -39.4543)" class="st1" width="24.2" height="2.2"/>
		</g>
		<g>
			
				<rect id="XMLID_5_" x="68.8" y="30.8" transform="matrix(0.2588 0.9659 -0.9659 0.2588 93.7798 -58.2894)" class="st1" width="32.2" height="2.2"/>
		</g>
		<g>
			
				<rect id="XMLID_4_" x="100.2" y="171.7" transform="matrix(0.2588 0.9659 -0.9659 0.2588 257.8638 9.6798)" class="st1" width="44.8" height="2.2"/>
		</g>
		<g>
			<rect id="XMLID_3_" x="102.4" y="12.7" class="st1" width="2.2" height="31.3"/>
		</g>
		<g>
			<rect id="XMLID_2_" x="102.4" y="151.5" class="st1" width="2.2" height="26.9"/>
		</g>
	</g>
</g>
<g id="XMLID_1_" class="st0">
	<path id="XMLID_38_" class="st1" d="M103.4,73.9c13.3,0,24.2,10.8,24.2,24.2c0,13.3-10.8,24.2-24.2,24.2
		c-13.3,0-24.2-10.8-24.2-24.2C79.3,84.7,90.1,73.9,103.4,73.9 M103.4,69.9c-15.6,0-28.2,12.6-28.2,28.2c0,15.6,12.6,28.2,28.2,28.2
		c15.6,0,28.2-12.6,28.2-28.2C131.6,82.5,119,69.9,103.4,69.9L103.4,69.9z"/>
</g>
</svg>
