<?xml version="1.0" encoding="utf-8"?>
<!-- Generator: Adobe Illustrator 19.0.0, SVG Export Plug-In . SVG Version: 6.00 Build 0)  -->
<svg version="1.1" id="Layer_1" xmlns="http://www.w3.org/2000/svg" xmlns:xlink="http://www.w3.org/1999/xlink" x="0px" y="0px"
	 viewBox="0 0 200 200" style="enable-background:new 0 0 200 200;" xml:space="preserve">
<style type="text/css">
	.st0{opacity:0.7;fill:none;stroke:#010101;stroke-width:4;stroke-miterlimit:10;}
	.st1{opacity:0.54;fill:none;stroke:#010101;stroke-width:4;stroke-miterlimit:10;}
</style>
<path class="st0" d="M188.8,112.8c-2-10.3-12.2-17.2-24.1-17.2c-1.2,0-2.4,0.1-3.5,0.2v-9.1H37.1v14.9c0,34.3,27.8,62.1,62,62.1
	c20.8,0,39.1-10.3,50.4-26c3.5,1.6,7.5,2.6,11.8,2.6c2,0,4-0.2,6-0.6C181.6,136.8,191.2,124.8,188.8,112.8z M172.3,120.1
	c-1.8,2.2-4.7,3.9-7.9,4.5c-1,0.2-2,0.3-3,0.3c-1.6,0-3.1-0.3-4.4-0.7c1.6-4,2.7-8.2,3.4-12.6c0.5-0.1,0.9-0.3,1.4-0.4
	c1-0.2,2-0.3,3-0.3c4.5,0,8.4,2.1,9,4.9C174.1,117.5,173,119.2,172.3,120.1z"/>
<path id="XMLID_4_" class="st0" d="M196.4,168.1H4.4c0,5.1,19.6,9.5,48.5,11.9c0.5,3.1,5.6,5.5,11.9,5.5H136
	c6.3,0,11.3-2.4,11.8-5.5C176.8,177.7,196.4,173.2,196.4,168.1z"/>
<path id="XMLID_3_" class="st1" d="M75.5,15.8c-6.8,0-12.9,15.3,1.2,30.9c14.7,16.3,0.7,30.4-3.8,30.9"/>
<path id="XMLID_2_" class="st1" d="M98.9,15.8c-6.8,0-12.9,15.3,1.2,30.9c14.7,16.3,0.7,30.4-3.8,30.9"/>
<path id="XMLID_1_" class="st1" d="M122.3,15.8c-6.8,0-12.9,15.3,1.2,30.9c14.7,16.3,0.7,30.4-3.8,30.9"/>
</svg>
