<?xml version="1.0" encoding="utf-8"?>
<!-- Generator: Adobe Illustrator 19.0.0, SVG Export Plug-In . SVG Version: 6.00 Build 0)  -->
<svg version="1.1" id="Layer_1" xmlns="http://www.w3.org/2000/svg" xmlns:xlink="http://www.w3.org/1999/xlink" x="0px" y="0px"
	 viewBox="0 0 200 200" style="enable-background:new 0 0 200 200;" xml:space="preserve">
<style type="text/css">
	.st0{fill:#454545;stroke:#454545;stroke-width:2;stroke-miterlimit:10;}
</style>
<path id="XMLID_16_" class="st0" d="M154.8,109.9c0.2-14.4-1.7-37.7-2.8-46.6l0,0c0-0.4-0.2-0.9-1.1-1.1c-4.4-2-32.7-2.8-45.7-1.5
	c-3.3,0.4-7.6,1.3-12.2,2.8C86,50,76.2,33.5,74,33.3h-0.2c-2.4,0-42.7,7.6-45.5,11.5l0,0c-0.7,0.7-13.9,17.9-17.4,25.3
	c-2.6,5.4,4.8,27.7,11.3,42.7l-3.9,2.8c-0.9,0.7-1.7,1.1-2.4,1.3c-2.4,1.1-4.4,2.2-6.1,8.5c-0.7,2.2-1.7,4.4-2.8,6.3
	c-2,3.5-3.7,6.8-2.6,9.6c0.9,2,2.8,3.5,6.1,4.6c3.7,1.3,3.7,1.3,5.7,3.7c1.1,1.5,3,3.7,6.3,7.4c5.9,6.3,17.9,9.8,32.7,9.8
	c5.6,0,12-0.4,18.3-1.5c3.9-0.7,4.6-2.2,4.6-3.5c-0.4-4.1-12.6-9.4-25.3-8.9c-7.4,0.2-10.5-1.3-11.1-2.8c-0.4-1.1,0.9-2.6,3-4.1
	c8.5-5.7,12.4-4.1,16.1-2.6c2.8,1.1,5.7,2.2,9.8,0c7.2-3.5,25.9-1.3,38.3,0.2c3,0.4,5.9,0.6,8.3,0.9c1.3,0.2,2.4,0.2,3.7,0.4
	c9.3,1.1,14.4,1.5,30.7-7.4c10.2-5.7,10.9-5.2,15.2-3.5c3.3,1.5,7.8,3.7,18.7,5c2.4,0.2,9.8,1.3,10.4-2.8
	C196.9,129.1,172,113.4,154.8,109.9z M151.6,119.5c-3.7,2.6-17.9,10.9-26.4,12.6c0.7-7.9,2.8-47.5,0.2-56.6c15.5-5,22-7.8,24.8-9.6
	C152.4,91,153.5,117.5,151.6,119.5z M105.6,62.9c12.4-1.3,37.5-0.4,43.6,1.1c-3.1,1.9-14.6,6.3-25.3,9.8c-3-0.9-9.4-1.3-19.2-1.3
	c-11.3,0-24.8,0.7-32.7,0.9C80.8,69.8,96.9,63.7,105.6,62.9z M65.3,120.6c-9.4,1.7-22.7,2.8-31.1,3.5c5.4-6.1,13.7-20.9,16.1-25.5
	c4.1,0,8.3-0.7,12.6-1.7C63.4,105.3,64.2,114.1,65.3,120.6z M66.2,75.9c3.9-0.2,23.1-1.3,38.3-1.3c11.8,0,16.6,0.7,18.5,1.1
	c2,4.4,0.4,51.2-0.4,56.6c-0.4,0-1.1,0.2-3,0.2c-7.4,0-23.5-1.7-35.5-3.3c-7.2-0.9-12.2-1.3-13.9-1.3c0,0,0,0-0.2,0
	C66.8,126.2,62.9,86.8,66.2,75.9z M30.3,45.9c2.4-2.8,39-10.5,43.6-10.7c2.6,2.2,11.1,16.5,17.4,28.5c-12.2,3.9-25.5,9.6-26.1,9.8
	l0,0c-0.2,0.2-0.4,0.2-0.7,0.7c-1.3,3.5-1.7,11.3-1.5,20.3c-4.2,0.9-8.5,1.5-12.6,1.7C46.6,91.2,29.2,49.6,30.3,45.9z M12.8,70.9
	c2.8-5.7,11.5-17.6,15.5-22.7c2.2,11.3,16.6,43.6,20,49.2c-6.5,12.2-14.8,25.5-17.6,26.8h-0.2C26.6,120.4,9.8,77.5,12.8,70.9z
	 M185.5,136.9c-10.5-1.3-15-3.5-18.1-4.8c-5-2.2-6.3-2.4-17,3.5c-15.7,8.7-20.3,8.3-29.4,7.2c-1.1-0.2-2.4-0.2-3.7-0.4
	c-2.2-0.2-5-0.7-8.1-0.9c-13.3-1.7-31.8-3.9-39.4,0c-3.5,1.7-5.7,0.9-8.3-0.2c-4.2-1.5-8.7-3.3-17.9,2.8c-3,2-4.4,4.1-3.7,6.3
	c0.9,2.8,5.4,4.3,12.8,4.1c12.8-0.2,22.9,5,23.1,7.2c0,0.4-0.9,1.1-2.8,1.5c-21.8,3.7-41.4,0.7-49.2-7.6c-3.5-3.7-5.2-5.9-6.3-7.2
	c-2.2-2.8-2.4-3.1-6.8-4.4c-2.8-0.9-4.3-2-5-3.3c-0.9-2,0.9-4.8,2.4-7.8c1.1-2.2,2.4-4.4,3.1-6.7c1.5-5.4,3-6.1,5.2-7.2
	c0.9-0.4,1.7-0.9,2.6-1.5l3.7-2.6c2.8,6.5,5.4,11.1,6.5,12c0.2,0.2,0.7,0.2,0.9,0.2c0.2,0,0.2,0,0.7,0l0,0
	c4.6-0.2,22.4-1.5,34.8-3.7c0.7,3,1.3,5.2,2.2,6.3c0.7,0.9,1.3,1.3,2.2,1.3c1.3,0,7.2,0.7,13.9,1.3c12,1.3,28.1,3.3,35.7,3.3
	c1.5,0,2.8,0,3.5-0.2c8.7-0.9,25.3-10.2,29.6-13.3c1.1-0.9,1.7-4.6,2-9.6c17.6,3.7,39.8,19,39,23.7
	C193.6,136.7,191.4,137.6,185.5,136.9z"/>
</svg>
